<svg width="228" height="36" viewBox="0 0 228 36" fill="none" xmlns="http://www.w3.org/2000/svg"><rect width="228" height="36" rx="3" fill="#FD0"/><path d="M52.718 13.13c1.587 0 2.81.43 3.668 1.288.859.85 1.288 2.063 1.288 3.64s-.434 2.795-1.302 3.654c-.859.859-2.077 1.288-3.654 1.288H49.4v-4.536h-1.288v-.938H49.4V13.13h3.318zm-.056 8.89c1.27 0 2.226-.331 2.87-.994.644-.663.966-1.652.966-2.968 0-2.632-1.279-3.948-3.836-3.948h-2.114v3.416h2.702v.938h-2.702v3.556h2.114zm9.687-6.006c.868 0 1.512.224 1.932.672.43.439.644 1.11.644 2.016V23H63.82v-1.162a2.043 2.043 0 0 1-.812.938 2.433 2.433 0 0 1-1.26.322c-.438 0-.844-.089-1.218-.266a2.174 2.174 0 0 1-.868-.742 1.834 1.834 0 0 1-.322-1.05c0-.513.131-.91.392-1.19.262-.29.691-.495 1.288-.616.598-.13 1.428-.196 2.492-.196h.308v-.462c0-.57-.116-.98-.35-1.232-.233-.261-.611-.392-1.134-.392-.784 0-1.563.243-2.338.728l-.378-.826a4.36 4.36 0 0 1 1.274-.602c.504-.159.99-.238 1.456-.238zm-.448 6.188c.56 0 1.018-.187 1.372-.56.364-.383.546-.873.546-1.47v-.406h-.252c-.821 0-1.446.037-1.876.112-.429.065-.737.182-.924.35-.177.159-.266.397-.266.714 0 .364.131.667.392.91.271.233.607.35 1.008.35zm.462-7.336c-.513 0-.98-.145-1.4-.434-.41-.29-.714-.737-.91-1.344l.714-.294c.383.821.915 1.232 1.596 1.232.682 0 1.214-.41 1.596-1.232l.714.294c-.186.607-.49 1.055-.91 1.344-.41.29-.877.434-1.4.434zm8.068 1.148c1.633 0 2.45.9 2.45 2.702V23h-1.134v-4.214c0-.635-.126-1.097-.378-1.386-.243-.29-.635-.434-1.176-.434-.625 0-1.124.191-1.498.574-.373.383-.56.9-.56 1.554V23h-1.134v-6.818h1.12v1.12c.224-.42.537-.737.938-.952a2.767 2.767 0 0 1 1.372-.336zm10.631.168v6.356c0 1.017-.261 1.783-.784 2.296-.523.523-1.297.784-2.324.784-1.194 0-2.198-.308-3.01-.924l.378-.84a5.52 5.52 0 0 0 1.288.644c.401.13.85.196 1.344.196.654 0 1.148-.177 1.484-.532.336-.345.504-.854.504-1.526v-1.204c-.196.439-.5.775-.91 1.008-.401.233-.877.35-1.428.35-.597 0-1.13-.14-1.596-.42a2.902 2.902 0 0 1-1.078-1.19c-.252-.513-.378-1.106-.378-1.778 0-.672.126-1.265.378-1.778.261-.513.62-.91 1.078-1.19.467-.28.999-.42 1.596-.42.541 0 1.013.117 1.414.35.401.233.705.565.91.994v-1.176h1.134zm-3.234 5.67c.653 0 1.167-.215 1.54-.644.374-.439.56-1.04.56-1.806 0-.756-.186-1.349-.56-1.778-.364-.439-.877-.658-1.54-.658s-1.185.22-1.568.658c-.373.43-.56 1.022-.56 1.778 0 .765.187 1.367.56 1.806.383.43.905.644 1.568.644zm12.373-5.838c1.633 0 2.45.9 2.45 2.702V23h-1.134v-4.214c0-.635-.126-1.097-.378-1.386-.243-.29-.635-.434-1.176-.434-.626 0-1.125.191-1.498.574-.374.383-.56.9-.56 1.554V23H86.77v-6.818h1.12v1.12a2.25 2.25 0 0 1 .938-.952 2.767 2.767 0 0 1 1.372-.336zm7.957 0c1.633 0 2.45.9 2.45 2.702V23h-1.134v-4.214c0-.635-.126-1.097-.378-1.386-.243-.29-.635-.434-1.176-.434-.626 0-1.125.191-1.498.574-.374.383-.56.9-.56 1.554V23h-1.134v-9.87h1.134v4.144a2.3 2.3 0 0 1 .924-.938 2.863 2.863 0 0 1 1.372-.322zm7.299 0c.868 0 1.512.224 1.932.672.429.439.644 1.11.644 2.016V23h-1.106v-1.162a2.047 2.047 0 0 1-.812.938 2.433 2.433 0 0 1-1.26.322 2.8 2.8 0 0 1-1.218-.266 2.17 2.17 0 0 1-.868-.742 1.831 1.831 0 0 1-.322-1.05c0-.513.13-.91.392-1.19.261-.29.69-.495 1.288-.616.597-.13 1.428-.196 2.492-.196h.308v-.462c0-.57-.117-.98-.35-1.232-.234-.261-.612-.392-1.134-.392-.784 0-1.564.243-2.338.728l-.378-.826a4.343 4.343 0 0 1 1.274-.602 4.84 4.84 0 0 1 1.456-.238zm-.448 6.188c.56 0 1.017-.187 1.372-.56.364-.383.546-.873.546-1.47v-.406h-.252c-.822 0-1.447.037-1.876.112-.43.065-.738.182-.924.35-.178.159-.266.397-.266.714 0 .364.13.667.392.91.27.233.606.35 1.008.35zm-.224 2.114h1.288v1.232h-1.288v-1.232zm-.322-9.03h-1.036l1.652-2.828h.784l1.652 2.828h-1.036l-1.008-2.002-1.008 2.002zm9.076.728c.597 0 1.124.15 1.582.448.457.299.812.719 1.064 1.26.252.532.378 1.153.378 1.862 0 .71-.126 1.33-.378 1.862a2.888 2.888 0 0 1-1.064 1.218c-.448.29-.976.434-1.582.434-.532 0-.999-.117-1.4-.35a2.26 2.26 0 0 1-.896-.994v3.766h-1.134v-9.338h1.134v1.176c.205-.43.504-.76.896-.994.401-.233.868-.35 1.4-.35zm-.224 6.146c.662 0 1.176-.224 1.54-.672.364-.448.546-1.083.546-1.904s-.182-1.46-.546-1.918c-.364-.467-.878-.7-1.54-.7-.663 0-1.176.224-1.54.672-.355.448-.532 1.087-.532 1.918 0 .83.177 1.475.532 1.932.364.448.877.672 1.54.672zm11.981-6.146c.598 0 1.125.145 1.582.434.458.29.812.7 1.064 1.232s.378 1.148.378 1.848c0 .71-.126 1.335-.378 1.876a2.96 2.96 0 0 1-1.064 1.246c-.457.299-.984.448-1.582.448-.532 0-.998-.117-1.4-.35a2.266 2.266 0 0 1-.896-.994V23h-1.134v-9.87H123v4.228c.206-.43.504-.76.896-.994.402-.233.868-.35 1.4-.35zm-.224 6.146c.663 0 1.176-.229 1.54-.686.364-.467.546-1.115.546-1.946 0-.812-.182-1.442-.546-1.89-.364-.448-.877-.672-1.54-.672-.662 0-1.176.224-1.54.672-.354.448-.532 1.087-.532 1.918 0 .83.178 1.475.532 1.932.364.448.878.672 1.54.672zm7.715-6.146c.868 0 1.512.224 1.932.672.429.439.644 1.11.644 2.016V23h-1.106v-1.162a2.041 2.041 0 0 1-.812.938 2.433 2.433 0 0 1-1.26.322 2.8 2.8 0 0 1-1.218-.266 2.176 2.176 0 0 1-.868-.742 1.831 1.831 0 0 1-.322-1.05c0-.513.131-.91.392-1.19.261-.29.691-.495 1.288-.616.597-.13 1.428-.196 2.492-.196h.308v-.462c0-.57-.117-.98-.35-1.232-.233-.261-.611-.392-1.134-.392-.784 0-1.563.243-2.338.728l-.378-.826a4.355 4.355 0 0 1 1.274-.602 4.84 4.84 0 0 1 1.456-.238zm-.448 6.188c.56 0 1.017-.187 1.372-.56.364-.383.546-.873.546-1.47v-.406h-.252c-.821 0-1.447.037-1.876.112-.429.065-.737.182-.924.35-.177.159-.266.397-.266.714 0 .364.131.667.392.91.271.233.607.35 1.008.35zm.084-8.358l-1.848-1.988h1.204l1.4 1.988h-.756zm.378 1.512c-.523 0-.985-.117-1.386-.35-.392-.243-.691-.62-.896-1.134l.658-.28c.205.364.439.62.7.77.271.15.579.224.924.224.345 0 .649-.075.91-.224.271-.15.509-.406.714-.77l.658.28c-.205.513-.509.891-.91 1.134-.392.233-.849.35-1.372.35zm8.068.658c1.633 0 2.45.9 2.45 2.702V23h-1.134v-4.214c0-.635-.126-1.097-.378-1.386-.243-.29-.635-.434-1.176-.434-.626 0-1.125.191-1.498.574-.374.383-.56.9-.56 1.554V23h-1.134v-6.818h1.12v1.12a2.25 2.25 0 0 1 .938-.952 2.764 2.764 0 0 1 1.372-.336zm10.631.168v6.356c0 1.017-.262 1.783-.784 2.296-.523.523-1.298.784-2.324.784-1.195 0-2.198-.308-3.01-.924l.378-.84c.457.299.886.513 1.288.644.401.13.849.196 1.344.196.653 0 1.148-.177 1.484-.532.336-.345.504-.854.504-1.526v-1.204c-.196.439-.5.775-.91 1.008-.402.233-.878.35-1.428.35-.598 0-1.13-.14-1.596-.42a2.895 2.895 0 0 1-1.078-1.19c-.252-.513-.378-1.106-.378-1.778 0-.672.126-1.265.378-1.778.261-.513.62-.91 1.078-1.19.466-.28.998-.42 1.596-.42.541 0 1.012.117 1.414.35.401.233.704.565.91.994v-1.176h1.134zm-3.234 5.67c.653 0 1.166-.215 1.54-.644.373-.439.56-1.04.56-1.806 0-.756-.187-1.349-.56-1.778-.364-.439-.878-.658-1.54-.658-.663 0-1.186.22-1.568.658-.374.43-.56 1.022-.56 1.778 0 .765.186 1.367.56 1.806.382.43.905.644 1.568.644zm12.246 1.26c-1.54 0-2.772-.415-3.696-1.246l.448-.882c.486.41.98.705 1.484.882.514.177 1.106.266 1.778.266.794 0 1.405-.154 1.834-.462.43-.308.644-.742.644-1.302 0-.327-.102-.593-.308-.798a2.168 2.168 0 0 0-.812-.49 12.165 12.165 0 0 0-1.358-.378c-.765-.177-1.395-.364-1.89-.56a2.998 2.998 0 0 1-1.19-.84c-.298-.364-.448-.84-.448-1.428 0-.56.145-1.055.434-1.484.299-.439.719-.775 1.26-1.008.551-.243 1.186-.364 1.904-.364a5.5 5.5 0 0 1 1.904.322 4.114 4.114 0 0 1 1.512.924l-.434.882c-.466-.401-.942-.69-1.428-.868a4.219 4.219 0 0 0-1.554-.28c-.765 0-1.367.163-1.806.49-.429.317-.644.765-.644 1.344 0 .495.192.868.574 1.12.383.252.962.467 1.736.644.85.205 1.517.397 2.002.574.486.168.887.425 1.204.77.327.345.49.807.49 1.386 0 .56-.149 1.05-.448 1.47-.289.42-.709.747-1.26.98-.55.224-1.194.336-1.932.336zm13.891-9.982h.938V23h-1.05l.014-7.644-3.206 6.076h-.812l-3.22-6.02.014 7.588h-1.064v-9.87h.952l3.738 7.154 3.696-7.154zm6.521 9.982c-1.54 0-2.772-.415-3.696-1.246l.448-.882c.486.41.98.705 1.484.882.514.177 1.106.266 1.778.266.794 0 1.405-.154 1.834-.462.43-.308.644-.742.644-1.302 0-.327-.102-.593-.308-.798a2.168 2.168 0 0 0-.812-.49 12.165 12.165 0 0 0-1.358-.378c-.765-.177-1.395-.364-1.89-.56a2.998 2.998 0 0 1-1.19-.84c-.298-.364-.448-.84-.448-1.428 0-.56.145-1.055.434-1.484.299-.439.719-.775 1.26-1.008.551-.243 1.186-.364 1.904-.364a5.5 5.5 0 0 1 1.904.322 4.114 4.114 0 0 1 1.512.924l-.434.882c-.466-.401-.942-.69-1.428-.868a4.219 4.219 0 0 0-1.554-.28c-.765 0-1.367.163-1.806.49-.429.317-.644.765-.644 1.344 0 .495.192.868.574 1.12.383.252.962.467 1.736.644.85.205 1.517.397 2.002.574.486.168.887.425 1.204.77.327.345.49.807.49 1.386 0 .56-.149 1.05-.448 1.47-.289.42-.709.747-1.26.98-.55.224-1.194.336-1.932.336z" fill="#373435"/><path opacity=".3" d="M36 5v25.5" stroke="#808084"/><g clip-path="url(#a)"><path d="M22.625 8h-8.75C12.84 8 12 8.84 12 9.875v16.25C12 27.16 12.84 28 13.875 28h8.75c1.035 0 1.875-.84 1.875-1.875V9.875C24.5 8.84 23.66 8 22.625 8zM18.25 26.75a1.25 1.25 0 1 1-.002-2.498 1.25 1.25 0 0 1 .002 2.498zm4.375-4.219a.47.47 0 0 1-.469.469h-7.812a.47.47 0 0 1-.469-.469V10.344a.47.47 0 0 1 .469-.469h7.812a.47.47 0 0 1 .469.469V22.53z" fill="#606062"/></g><defs><clipPath id="a"><path fill="#fff" transform="translate(12 8)" d="M0 0h12.5v20H0z"/></clipPath></defs></svg>