<svg width="228" height="36" viewBox="0 0 228 36" fill="none" xmlns="http://www.w3.org/2000/svg"><rect width="228" height="36" rx="3" fill="#D34835"/><path opacity=".3" d="M36 5v25.5" stroke="#fff"/><path d="M52.718 13.13c1.587 0 2.81.43 3.668 1.288.859.85 1.288 2.063 1.288 3.64s-.434 2.795-1.302 3.654c-.859.859-2.077 1.288-3.654 1.288H49.4v-4.536h-1.288v-.938H49.4V13.13h3.318zm-.056 8.89c1.27 0 2.226-.331 2.87-.994.644-.663.966-1.652.966-2.968 0-2.632-1.279-3.948-3.836-3.948h-2.114v3.416h2.702v.938h-2.702v3.556h2.114zm9.687-6.006c.868 0 1.512.224 1.932.672.43.439.644 1.11.644 2.016V23H63.82v-1.162a2.043 2.043 0 0 1-.812.938 2.433 2.433 0 0 1-1.26.322c-.438 0-.844-.089-1.218-.266a2.174 2.174 0 0 1-.868-.742 1.834 1.834 0 0 1-.322-1.05c0-.513.131-.91.392-1.19.262-.29.691-.495 1.288-.616.598-.13 1.428-.196 2.492-.196h.308v-.462c0-.57-.116-.98-.35-1.232-.233-.261-.611-.392-1.134-.392-.784 0-1.563.243-2.338.728l-.378-.826a4.36 4.36 0 0 1 1.274-.602c.504-.159.99-.238 1.456-.238zm-.448 6.188c.56 0 1.018-.187 1.372-.56.364-.383.546-.873.546-1.47v-.406h-.252c-.821 0-1.446.037-1.876.112-.429.065-.737.182-.924.35-.177.159-.266.397-.266.714 0 .364.131.667.392.91.271.233.607.35 1.008.35zm.462-7.336c-.513 0-.98-.145-1.4-.434-.41-.29-.714-.737-.91-1.344l.714-.294c.383.821.915 1.232 1.596 1.232.682 0 1.214-.41 1.596-1.232l.714.294c-.186.607-.49 1.055-.91 1.344-.41.29-.877.434-1.4.434zm8.068 1.148c1.633 0 2.45.9 2.45 2.702V23h-1.134v-4.214c0-.635-.126-1.097-.378-1.386-.243-.29-.635-.434-1.176-.434-.625 0-1.124.191-1.498.574-.373.383-.56.9-.56 1.554V23h-1.134v-6.818h1.12v1.12c.224-.42.537-.737.938-.952a2.767 2.767 0 0 1 1.372-.336zm10.631.168v6.356c0 1.017-.261 1.783-.784 2.296-.523.523-1.297.784-2.324.784-1.194 0-2.198-.308-3.01-.924l.378-.84a5.52 5.52 0 0 0 1.288.644c.401.13.85.196 1.344.196.654 0 1.148-.177 1.484-.532.336-.345.504-.854.504-1.526v-1.204c-.196.439-.5.775-.91 1.008-.401.233-.877.35-1.428.35-.597 0-1.13-.14-1.596-.42a2.902 2.902 0 0 1-1.078-1.19c-.252-.513-.378-1.106-.378-1.778 0-.672.126-1.265.378-1.778.261-.513.62-.91 1.078-1.19.467-.28.999-.42 1.596-.42.541 0 1.013.117 1.414.35.401.233.705.565.91.994v-1.176h1.134zm-3.234 5.67c.653 0 1.167-.215 1.54-.644.374-.439.56-1.04.56-1.806 0-.756-.186-1.349-.56-1.778-.364-.439-.877-.658-1.54-.658s-1.185.22-1.568.658c-.373.43-.56 1.022-.56 1.778 0 .765.187 1.367.56 1.806.383.43.905.644 1.568.644zm12.373-5.838c1.633 0 2.45.9 2.45 2.702V23h-1.134v-4.214c0-.635-.126-1.097-.378-1.386-.243-.29-.635-.434-1.176-.434-.626 0-1.125.191-1.498.574-.374.383-.56.9-.56 1.554V23H86.77v-6.818h1.12v1.12a2.25 2.25 0 0 1 .938-.952 2.767 2.767 0 0 1 1.372-.336zm7.957 0c1.633 0 2.45.9 2.45 2.702V23h-1.134v-4.214c0-.635-.126-1.097-.378-1.386-.243-.29-.635-.434-1.176-.434-.626 0-1.125.191-1.498.574-.374.383-.56.9-.56 1.554V23h-1.134v-9.87h1.134v4.144a2.3 2.3 0 0 1 .924-.938 2.863 2.863 0 0 1 1.372-.322zm7.299 0c.868 0 1.512.224 1.932.672.429.439.644 1.11.644 2.016V23h-1.106v-1.162a2.047 2.047 0 0 1-.812.938 2.433 2.433 0 0 1-1.26.322 2.8 2.8 0 0 1-1.218-.266 2.17 2.17 0 0 1-.868-.742 1.831 1.831 0 0 1-.322-1.05c0-.513.13-.91.392-1.19.261-.29.69-.495 1.288-.616.597-.13 1.428-.196 2.492-.196h.308v-.462c0-.57-.117-.98-.35-1.232-.234-.261-.612-.392-1.134-.392-.784 0-1.564.243-2.338.728l-.378-.826a4.343 4.343 0 0 1 1.274-.602 4.84 4.84 0 0 1 1.456-.238zm-.448 6.188c.56 0 1.017-.187 1.372-.56.364-.383.546-.873.546-1.47v-.406h-.252c-.822 0-1.447.037-1.876.112-.43.065-.738.182-.924.35-.178.159-.266.397-.266.714 0 .364.13.667.392.91.27.233.606.35 1.008.35zm-.224 2.114h1.288v1.232h-1.288v-1.232zm-.322-9.03h-1.036l1.652-2.828h.784l1.652 2.828h-1.036l-1.008-2.002-1.008 2.002zm9.076.728c.597 0 1.124.15 1.582.448.457.299.812.719 1.064 1.26.252.532.378 1.153.378 1.862 0 .71-.126 1.33-.378 1.862a2.888 2.888 0 0 1-1.064 1.218c-.448.29-.976.434-1.582.434-.532 0-.999-.117-1.4-.35a2.26 2.26 0 0 1-.896-.994v3.766h-1.134v-9.338h1.134v1.176c.205-.43.504-.76.896-.994.401-.233.868-.35 1.4-.35zm-.224 6.146c.662 0 1.176-.224 1.54-.672.364-.448.546-1.083.546-1.904s-.182-1.46-.546-1.918c-.364-.467-.878-.7-1.54-.7-.663 0-1.176.224-1.54.672-.355.448-.532 1.087-.532 1.918 0 .83.177 1.475.532 1.932.364.448.877.672 1.54.672zm11.981-6.146c.598 0 1.125.145 1.582.434.458.29.812.7 1.064 1.232s.378 1.148.378 1.848c0 .71-.126 1.335-.378 1.876a2.96 2.96 0 0 1-1.064 1.246c-.457.299-.984.448-1.582.448-.532 0-.998-.117-1.4-.35a2.266 2.266 0 0 1-.896-.994V23h-1.134v-9.87H123v4.228c.206-.43.504-.76.896-.994.402-.233.868-.35 1.4-.35zm-.224 6.146c.663 0 1.176-.229 1.54-.686.364-.467.546-1.115.546-1.946 0-.812-.182-1.442-.546-1.89-.364-.448-.877-.672-1.54-.672-.662 0-1.176.224-1.54.672-.354.448-.532 1.087-.532 1.918 0 .83.178 1.475.532 1.932.364.448.878.672 1.54.672zm7.715-6.146c.868 0 1.512.224 1.932.672.429.439.644 1.11.644 2.016V23h-1.106v-1.162a2.041 2.041 0 0 1-.812.938 2.433 2.433 0 0 1-1.26.322 2.8 2.8 0 0 1-1.218-.266 2.176 2.176 0 0 1-.868-.742 1.831 1.831 0 0 1-.322-1.05c0-.513.131-.91.392-1.19.261-.29.691-.495 1.288-.616.597-.13 1.428-.196 2.492-.196h.308v-.462c0-.57-.117-.98-.35-1.232-.233-.261-.611-.392-1.134-.392-.784 0-1.563.243-2.338.728l-.378-.826a4.355 4.355 0 0 1 1.274-.602 4.84 4.84 0 0 1 1.456-.238zm-.448 6.188c.56 0 1.017-.187 1.372-.56.364-.383.546-.873.546-1.47v-.406h-.252c-.821 0-1.447.037-1.876.112-.429.065-.737.182-.924.35-.177.159-.266.397-.266.714 0 .364.131.667.392.91.271.233.607.35 1.008.35zm.084-8.358l-1.848-1.988h1.204l1.4 1.988h-.756zm.378 1.512c-.523 0-.985-.117-1.386-.35-.392-.243-.691-.62-.896-1.134l.658-.28c.205.364.439.62.7.77.271.15.579.224.924.224.345 0 .649-.075.91-.224.271-.15.509-.406.714-.77l.658.28c-.205.513-.509.891-.91 1.134-.392.233-.849.35-1.372.35zm8.068.658c1.633 0 2.45.9 2.45 2.702V23h-1.134v-4.214c0-.635-.126-1.097-.378-1.386-.243-.29-.635-.434-1.176-.434-.626 0-1.125.191-1.498.574-.374.383-.56.9-.56 1.554V23h-1.134v-6.818h1.12v1.12a2.25 2.25 0 0 1 .938-.952 2.764 2.764 0 0 1 1.372-.336zm10.631.168v6.356c0 1.017-.262 1.783-.784 2.296-.523.523-1.298.784-2.324.784-1.195 0-2.198-.308-3.01-.924l.378-.84c.457.299.886.513 1.288.644.401.13.849.196 1.344.196.653 0 1.148-.177 1.484-.532.336-.345.504-.854.504-1.526v-1.204c-.196.439-.5.775-.91 1.008-.402.233-.878.35-1.428.35-.598 0-1.13-.14-1.596-.42a2.895 2.895 0 0 1-1.078-1.19c-.252-.513-.378-1.106-.378-1.778 0-.672.126-1.265.378-1.778.261-.513.62-.91 1.078-1.19.466-.28.998-.42 1.596-.42.541 0 1.012.117 1.414.35.401.233.704.565.91.994v-1.176h1.134zm-3.234 5.67c.653 0 1.166-.215 1.54-.644.373-.439.56-1.04.56-1.806 0-.756-.187-1.349-.56-1.778-.364-.439-.878-.658-1.54-.658-.663 0-1.186.22-1.568.658-.374.43-.56 1.022-.56 1.778 0 .765.186 1.367.56 1.806.382.43.905.644 1.568.644zm16.922-3.99v4.564c-.392.205-.905.373-1.54.504a9.973 9.973 0 0 1-1.904.182c-.98 0-1.824-.2-2.534-.602a4.041 4.041 0 0 1-1.638-1.736c-.373-.756-.56-1.661-.56-2.716 0-1.045.187-1.946.56-2.702a3.98 3.98 0 0 1 1.61-1.736c.7-.401 1.526-.602 2.478-.602a5.43 5.43 0 0 1 1.904.322 3.912 3.912 0 0 1 1.484.924l-.434.882c-.476-.41-.947-.705-1.414-.882a4.228 4.228 0 0 0-1.54-.266c-1.11 0-1.964.35-2.562 1.05-.597.7-.896 1.703-.896 3.01 0 1.335.304 2.352.91 3.052.607.69 1.494 1.036 2.66 1.036.85 0 1.638-.126 2.366-.378v-3.01h-2.45v-.896h3.5zm4.979 5.236c-.644 0-1.213-.145-1.708-.434-.485-.29-.863-.7-1.134-1.232-.261-.541-.392-1.167-.392-1.876 0-.71.131-1.33.392-1.862a2.946 2.946 0 0 1 1.134-1.246c.495-.29 1.064-.434 1.708-.434.644 0 1.213.145 1.708.434.495.29.873.705 1.134 1.246.271.532.406 1.153.406 1.862 0 .71-.135 1.335-.406 1.876a2.84 2.84 0 0 1-1.134 1.232c-.495.29-1.064.434-1.708.434zm0-.938c.672 0 1.185-.22 1.54-.658.364-.448.546-1.097.546-1.946 0-.83-.182-1.47-.546-1.918-.364-.457-.877-.686-1.54-.686s-1.176.229-1.54.686c-.364.448-.546 1.087-.546 1.918 0 .84.177 1.484.532 1.932.364.448.882.672 1.554.672zm7.766.938c-.644 0-1.214-.145-1.708-.434a2.95 2.95 0 0 1-1.134-1.232c-.262-.541-.392-1.167-.392-1.876 0-.71.13-1.33.392-1.862.27-.541.648-.957 1.134-1.246.494-.29 1.064-.434 1.708-.434.644 0 1.213.145 1.708.434.494.29.872.705 1.134 1.246.27.532.406 1.153.406 1.862 0 .71-.136 1.335-.406 1.876a2.85 2.85 0 0 1-1.134 1.232c-.495.29-1.064.434-1.708.434zm0-.938c.672 0 1.185-.22 1.54-.658.364-.448.546-1.097.546-1.946 0-.83-.182-1.47-.546-1.918-.364-.457-.878-.686-1.54-.686-.663 0-1.176.229-1.54.686-.364.448-.546 1.087-.546 1.918 0 .84.177 1.484.532 1.932.364.448.882.672 1.554.672zm11.041-5.978v6.356c0 1.017-.261 1.783-.784 2.296-.522.523-1.297.784-2.324.784-1.194 0-2.198-.308-3.01-.924l.378-.84a5.54 5.54 0 0 0 1.288.644c.402.13.85.196 1.344.196.654 0 1.148-.177 1.484-.532.336-.345.504-.854.504-1.526v-1.204a2.124 2.124 0 0 1-.91 1.008c-.401.233-.877.35-1.428.35-.597 0-1.129-.14-1.596-.42a2.91 2.91 0 0 1-1.078-1.19c-.252-.513-.378-1.106-.378-1.778 0-.672.126-1.265.378-1.778a2.91 2.91 0 0 1 1.078-1.19c.467-.28.999-.42 1.596-.42.542 0 1.013.117 1.414.35.402.233.705.565.91.994v-1.176h1.134zm-3.234 5.67c.654 0 1.167-.215 1.54-.644.374-.439.56-1.04.56-1.806 0-.756-.186-1.349-.56-1.778-.364-.439-.877-.658-1.54-.658-.662 0-1.185.22-1.568.658-.373.43-.56 1.022-.56 1.778 0 .765.187 1.367.56 1.806.383.43.906.644 1.568.644zM191.073 23v-9.87h1.134V23h-1.134zm8.966-3.234h-4.984c.038.793.252 1.395.644 1.806.392.401.948.602 1.666.602.794 0 1.522-.27 2.184-.812l.378.826c-.298.28-.681.504-1.148.672a4.4 4.4 0 0 1-1.428.238c-1.064 0-1.904-.313-2.52-.938-.606-.625-.91-1.489-.91-2.59 0-.7.136-1.316.406-1.848a3.04 3.04 0 0 1 1.134-1.26 3.188 3.188 0 0 1 1.68-.448c.906 0 1.615.299 2.128.896.514.588.77 1.4.77 2.436v.42zm-2.884-2.87c-.597 0-1.078.187-1.442.56-.354.373-.564.9-.63 1.582h3.962c-.018-.69-.191-1.218-.518-1.582-.326-.373-.784-.56-1.372-.56z" fill="#fff"/><path d="M26 17.699C26 22.549 22.823 26 18.131 26 13.633 26 10 22.202 10 17.5S13.633 9 18.131 9c2.19 0 4.033.84 5.453 2.224L21.37 13.45c-2.896-2.92-8.28-.727-8.28 4.051 0 2.965 2.266 5.367 5.04 5.367 3.22 0 4.426-2.413 4.616-3.664H18.13V16.28h7.741c.076.435.128.853.128 1.419z" fill="#FAFAFA"/></svg>