<svg width="64" height="64" viewBox="0 0 64 64" fill="none" xmlns="http://www.w3.org/2000/svg"><path d="M62.904 29.428a3.093 3.093 0 0 1 0 4.724h-.01a3.076 3.076 0 0 0-.583 4.075 3.088 3.088 0 0 1-1.329 4.536 3.087 3.087 0 0 0-1.845 2.823c0 .309.044.617.132.912v.011a3.076 3.076 0 0 1-2.549 3.966h-.01a3.075 3.075 0 0 0-2.692 3.108v.011a3.076 3.076 0 0 1-3.57 3.087 3.557 3.557 0 0 0-.483-.033 3.076 3.076 0 0 0-2.977 2.262 3.076 3.076 0 0 1-2.977 2.263 3.038 3.038 0 0 1-1.329-.296 3.032 3.032 0 0 0-1.329-.308 3.07 3.07 0 0 0-2.614 1.461v.011a3.083 3.083 0 0 1-4.68.659 3.109 3.109 0 0 0-4.118 0 3.085 3.085 0 0 1-4.68-.659v-.011a3.067 3.067 0 0 0-3.943-1.153h-.011a3.076 3.076 0 0 1-4.295-1.967 3.085 3.085 0 0 0-2.966-2.273 3.7 3.7 0 0 0-.494.044c-.164.025-.329.04-.494.044a3.083 3.083 0 0 1-3.076-3.091v-.05a3.075 3.075 0 0 0-2.691-3.11H7.28a3.076 3.076 0 0 1-2.55-3.964v-.01a3.085 3.085 0 0 0-1.713-3.735 3.089 3.089 0 0 1-1.33-4.537 3.06 3.06 0 0 0-.581-4.075h-.011a3.093 3.093 0 0 1 0-4.723l.01-.011a3.06 3.06 0 0 0 .583-4.064v-.011a3.075 3.075 0 0 1 1.329-4.526 3.1 3.1 0 0 0 1.856-2.823 2.989 2.989 0 0 0-.143-.923 3.076 3.076 0 0 1 2.56-3.976 3.076 3.076 0 0 0 2.69-3.043v-.12a3.077 3.077 0 0 1 3.57-3.043c.165.025.33.04.495.044a3.076 3.076 0 0 0 2.966-2.274 3.1 3.1 0 0 1 4.306-1.966v.01A3.082 3.082 0 0 0 25.26 1.54 3.075 3.075 0 0 1 27.886.08a3.04 3.04 0 0 1 2.055.79 3.075 3.075 0 0 0 4.119 0 3.04 3.04 0 0 1 2.054-.79 3.075 3.075 0 0 1 2.625 1.46A3.075 3.075 0 0 0 41.364 3a3.143 3.143 0 0 0 1.318-.296l.011-.011a3.084 3.084 0 0 1 4.295 1.966 3.085 3.085 0 0 0 2.966 2.273c.166-.003.33-.018.494-.043.167-.026.336-.041.505-.044a3.082 3.082 0 0 1 3.065 3.1v.085a3.084 3.084 0 0 0 2.691 3.065h.011a3.077 3.077 0 0 1 2.549 3.976 3.276 3.276 0 0 0-.132.912 3.089 3.089 0 0 0 1.845 2.834 3.088 3.088 0 0 1 1.33 4.536 3.046 3.046 0 0 0 .582 4.065l.01.01zm-6.59 2.505c0-13.346-10.82-24.166-24.166-24.166S7.983 18.587 7.983 31.933s10.82 24.166 24.165 24.166c13.346 0 24.166-10.82 24.166-24.166z" fill="#D82438"/><circle cx="32" cy="31.786" r="25" fill="#FB3A20"/><path d="M18.318 36.912a8.264 8.264 0 0 1-2.184-.294c-.72-.196-1.302-.458-1.75-.784l.798-1.82c.476.298.984.527 1.526.686a5.795 5.795 0 0 0 1.638.238c.56 0 .984-.075 1.274-.224.298-.159.448-.378.448-.658 0-.252-.136-.458-.406-.616-.262-.159-.766-.318-1.512-.476-.924-.196-1.648-.43-2.17-.7-.523-.271-.892-.588-1.106-.952-.206-.364-.308-.812-.308-1.344 0-.607.168-1.148.504-1.624.345-.486.826-.864 1.442-1.134.625-.28 1.339-.42 2.142-.42.709 0 1.395.102 2.058.308.672.196 1.194.452 1.568.77l-.784 1.82c-.896-.616-1.84-.924-2.828-.924-.476 0-.86.093-1.148.28-.29.177-.434.415-.434.714 0 .177.05.322.154.434.102.112.294.224.574.336.28.102.695.21 1.246.322.896.196 1.6.434 2.114.714.513.27.877.588 1.092.952.214.364.322.798.322 1.302 0 .97-.374 1.731-1.12 2.282-.747.541-1.797.812-3.15.812zm13.08-.126l-.882-2.044h-4.368l-.882 2.044h-2.59l4.606-9.87h2.044l4.62 9.87h-2.548zm-4.424-3.976h2.716l-1.358-3.164-1.358 3.164zm7.557 3.976v-9.87h2.576V34.7h4.2v2.086H34.53zm8.011 0v-9.87h7.014v1.988h-4.508v1.876h4.228v1.974h-4.228v2.044h4.508v1.988h-7.014z" fill="#fff"/></svg>