<svg width="60" height="61" viewBox="0 0 60 61" fill="none" xmlns="http://www.w3.org/2000/svg"><g clip-path="url(#a)"><path d="M56.92 14.09l-8.162-3.63-25.77 12.115v7.78l-4.495-1.999v-7.78l25.77-12.115-8.656-3.848c-1.16-.516-3.056-.516-4.215 0L10.08 14.09c-1.698.755-3.084 2.893-3.08 4.751l.034 14.043a13.799 13.799 0 0 1 4.234-.667c7.642 0 13.86 6.218 13.86 13.86 0 1.997-.432 3.891-1.195 5.608l7.526 3.217c1.12.479 2.955.479 4.076 0L56.8 45.814c1.727-.738 3.143-2.878 3.147-4.756L60 18.841c.004-1.858-1.381-3.996-3.08-4.751zm-8.228 16.123l2.888-6.093c.291-.615 1.022-.97 1.315-.636l2.963 3.378c.296.338-.08 1.106-.673 1.381l-1.248.58-.025 8.776c0 .384-.34.84-.755 1.02l-1.868.806c-.41.177-.74.013-.74-.365l-.007-8.663-1.208.56c-.569.264-.924-.149-.642-.744zm-10.649 4.979l2.625-5.792c.265-.584.941-.913 1.218-.59l2.797 3.277c.28.327-.062 1.057-.611 1.312l-1.156.536.075 8.405c.003.367-.307.8-.693.966l-1.732.748c-.38.164-.69.002-.694-.36l-.102-8.3-1.12.52c-.527.245-.864-.156-.607-.722zm19.203 4.738c-.001.193-.174.421-.387.51l-19.78 8.31c-.184.078-.336-.004-.338-.181l-.016-.967c-.002-.178.145-.387.33-.465l19.815-8.441c.213-.091.384-.008.383.186l-.007 1.048zm-45.979-5.12C5.045 34.81 0 39.855 0 46.078 0 52.3 5.045 57.345 11.267 57.345c6.223 0 11.267-5.045 11.267-11.267 0-6.223-5.044-11.268-11.267-11.268zm7.363 8.953l-6.934 7.8a1.73 1.73 0 0 1-2.379.201l-4.333-3.466A1.733 1.733 0 1 1 7.15 45.59l3.048 2.438 5.84-6.57a1.733 1.733 0 1 1 2.591 2.304z" fill="#D82438"/></g><defs><clipPath id="a"><path fill="#fff" transform="translate(0 .786)" d="M0 0h60v60H0z"/></clipPath></defs></svg>