<svg width="64" height="65" viewBox="0 0 64 65" fill="none" xmlns="http://www.w3.org/2000/svg"><g clip-path="url(#a)"><path d="M35.384 51.493c0-8.457 6.855-15.312 15.311-15.312 1.78 0 2.932.213 4.139.57.813.344 1.124-.334 1.209-.651.553-2.066.863-4.174.863-6.297l-.08-18.437c0-1.782-1.02-1.778-1.477-1.776-3.27.016-6.605.017-10.113-.994-7.288-2.101-13.767-7.81-16.23-7.81-2.386 0-7.197 5.709-14.485 7.81-4.11 1.185-8.05.965-11.738.794-.433-.02-1.123-.135-1.342 1.367-.055.378-.336 18.843-.336 19.046 0 18.04 22.317 34.983 27.9 34.983 1.787 0 4.665-1.435 8.54-4.318.515-.446.239-.742.086-.99a15.234 15.234 0 0 1-2.247-7.985z" fill="#D82438"/><path d="M50.791 59.3c-.515.556-1.436.642-2.046.191l-9.696-7.17a1.368 1.368 0 0 1-.28-1.92l1.245-1.652a1.403 1.403 0 0 1 1.94-.286l6.218 4.563c.611.448 1.533.36 2.049-.196l8.776-9.185a1.38 1.38 0 0 1 1.946-.072l1.514 1.408c.555.517.587 1.395.071 1.95L50.791 59.3z" fill="#FB3A20"/></g><defs><clipPath id="a"><path fill="#fff" transform="translate(0 .786)" d="M0 0h64v64H0z"/></clipPath></defs></svg>