<svg width="67" height="72" viewBox="0 0 67 72" fill="none" xmlns="http://www.w3.org/2000/svg"><path d="M43.936 1.317c0-.963-13.517-.4-20.275 0V22.38H12.33v24.07H1.595L1 70.52c21.667.201 65 .482 65 0V45.849H55.266c0-7.422-.12-22.506-.596-23.47-.477-.962-6.958-.4-10.138 0-.199-6.619-.596-20.098-.596-21.06z" fill="#D82438"/><path d="M7.178 65.804H4.786a1.196 1.196 0 1 0 0 2.392h2.392a1.196 1.196 0 1 0 0-2.392zm0-3.59H4.786a1.196 1.196 0 0 0 0 2.393h2.392a1.197 1.197 0 0 0 0-2.393zm21.536 3.59h-2.393a1.196 1.196 0 1 0 0 2.392h2.393a1.196 1.196 0 1 0 0-2.392zm0-3.59h-2.393a1.196 1.196 0 0 0 0 2.393h2.393a1.197 1.197 0 0 0 0-2.393zm21.536 3.59h-2.393a1.196 1.196 0 1 0 0 2.392h2.393a1.196 1.196 0 1 0 0-2.392zm0-3.59h-2.393a1.196 1.196 0 0 0 0 2.393h2.393a1.197 1.197 0 0 0 0-2.393z" fill="#fff"/><path d="M65.804 45.464h-9.572V22.732a1.196 1.196 0 0 0-1.196-1.196h-9.572V1.196A1.197 1.197 0 0 0 44.268 0H22.732a1.196 1.196 0 0 0-1.196 1.196v20.34h-9.572a1.197 1.197 0 0 0-1.196 1.196v22.732H1.196A1.196 1.196 0 0 0 0 46.661v23.928a1.196 1.196 0 0 0 1.196 1.197h64.608A1.196 1.196 0 0 0 67 70.589V46.661a1.197 1.197 0 0 0-1.196-1.197zm-11.965 2.393h2.393v4.786H53.84v-4.786zm0-2.393H34.696V23.93h5.983v5.982a1.196 1.196 0 0 0 1.196 1.196h4.786a1.196 1.196 0 0 0 1.196-1.196V23.93h5.982v21.535zm-21.535 2.393h2.392v4.786h-2.392v-4.786zm13.16-23.928v4.785h-2.393V23.93h2.393zM34.696 2.393v2.393h-2.392V2.393h2.392zm-10.767 0h5.982v3.59a1.197 1.197 0 0 0 1.196 1.196h4.786a1.197 1.197 0 0 0 1.196-1.197v-3.59h5.982v19.144H23.93V2.393zm0 21.536v4.785h-2.393V23.93h2.393zm-10.768 0h5.982v5.982a1.196 1.196 0 0 0 1.196 1.196h4.786a1.196 1.196 0 0 0 1.196-1.196v-5.982h5.983v21.535H13.16V23.93zm0 23.928v4.786h-2.393v-4.786h2.393zm-10.768 0h5.982v5.982a1.196 1.196 0 0 0 1.196 1.197h4.786a1.196 1.196 0 0 0 1.197-1.197v-5.982h5.982v21.536H2.393V47.857zm21.536 0h5.982v5.982a1.197 1.197 0 0 0 1.196 1.197h4.786a1.196 1.196 0 0 0 1.196-1.197v-5.982h5.982v21.536H23.93V47.857zm40.678 21.536H45.464V47.857h5.982v5.982a1.196 1.196 0 0 0 1.197 1.197h4.786a1.196 1.196 0 0 0 1.196-1.197v-5.982h5.982v21.536z" fill="#fff"/><path d="M15.553 44.268h2.393a1.196 1.196 0 0 0 0-2.393h-2.393a1.197 1.197 0 0 0 0 2.393zm0-3.589h2.393a1.196 1.196 0 1 0 0-2.393h-2.393a1.196 1.196 0 1 0 0 2.393zm23.929 1.196H37.09a1.197 1.197 0 0 0 0 2.393h2.393a1.196 1.196 0 0 0 0-2.393zm0-3.589H37.09a1.196 1.196 0 1 0 0 2.393h2.393a1.196 1.196 0 1 0 0-2.393zM26.321 16.75h2.393a1.196 1.196 0 1 0 0-2.393h-2.393a1.196 1.196 0 1 0 0 2.393zm0 3.59h2.393a1.196 1.196 0 0 0 0-2.394h-2.393a1.197 1.197 0 0 0 0 2.393z" fill="#fff"/></svg>