<svg width="228" height="36" viewBox="0 0 228 36" fill="none" xmlns="http://www.w3.org/2000/svg">
<rect width="228" height="36" rx="3" fill="#D34835"/>
<path opacity="0.3" d="M36 5V30.5" stroke="white"/>
<path d="M52.718 13.13C54.3047 13.13 55.5273 13.5593 56.386 14.418C57.2447 15.2673 57.674 16.4807 57.674 18.058C57.674 19.6353 57.24 20.8533 56.372 21.712C55.5133 22.5707 54.2953 23 52.718 23H49.4V18.464H48.112V17.526H49.4V13.13H52.718ZM52.662 22.02C53.9313 22.02 54.888 21.6887 55.532 21.026C56.176 20.3633 56.498 19.374 56.498 18.058C56.498 15.426 55.2193 14.11 52.662 14.11H50.548V17.526H53.25V18.464H50.548V22.02H52.662ZM62.3493 16.014C63.2173 16.014 63.8613 16.238 64.2813 16.686C64.7107 17.1247 64.9253 17.7967 64.9253 18.702V23H63.8193V21.838C63.642 22.2393 63.3713 22.552 63.0073 22.776C62.6433 22.9907 62.2233 23.098 61.7473 23.098C61.3087 23.098 60.9027 23.0093 60.5293 22.832C60.1653 22.6547 59.876 22.4073 59.6613 22.09C59.4467 21.7727 59.3393 21.4227 59.3393 21.04C59.3393 20.5267 59.47 20.13 59.7313 19.85C59.9927 19.5607 60.422 19.3553 61.0193 19.234C61.6167 19.1033 62.4473 19.038 63.5113 19.038H63.8193V18.576C63.8193 18.0067 63.7027 17.596 63.4693 17.344C63.236 17.0827 62.858 16.952 62.3353 16.952C61.5513 16.952 60.772 17.1947 59.9973 17.68L59.6193 16.854C59.974 16.602 60.3987 16.4013 60.8933 16.252C61.3973 16.0933 61.8827 16.014 62.3493 16.014ZM61.9013 22.202C62.4613 22.202 62.9187 22.0153 63.2733 21.642C63.6373 21.2593 63.8193 20.7693 63.8193 20.172V19.766H63.5673C62.746 19.766 62.1207 19.8033 61.6913 19.878C61.262 19.9433 60.954 20.06 60.7673 20.228C60.59 20.3867 60.5013 20.6247 60.5013 20.942C60.5013 21.306 60.632 21.6093 60.8933 21.852C61.164 22.0853 61.5 22.202 61.9013 22.202ZM62.3633 14.866C61.85 14.866 61.3833 14.7213 60.9633 14.432C60.5527 14.1427 60.2493 13.6947 60.0533 13.088L60.7673 12.794C61.15 13.6153 61.682 14.026 62.3633 14.026C63.0447 14.026 63.5767 13.6153 63.9593 12.794L64.6733 13.088C64.4867 13.6947 64.1833 14.1427 63.7633 14.432C63.3527 14.7213 62.886 14.866 62.3633 14.866ZM70.4312 16.014C72.0645 16.014 72.8812 16.9147 72.8812 18.716V23H71.7472V18.786C71.7472 18.1513 71.6212 17.6893 71.3692 17.4C71.1265 17.1107 70.7345 16.966 70.1932 16.966C69.5678 16.966 69.0685 17.1573 68.6952 17.54C68.3218 17.9227 68.1352 18.4407 68.1352 19.094V23H67.0012V16.182H68.1212V17.302C68.3452 16.882 68.6578 16.5647 69.0592 16.35C69.4605 16.126 69.9178 16.014 70.4312 16.014ZM81.0622 16.182V22.538C81.0622 23.5553 80.8009 24.3207 80.2782 24.834C79.7555 25.3567 78.9809 25.618 77.9542 25.618C76.7595 25.618 75.7562 25.31 74.9442 24.694L75.3222 23.854C75.7795 24.1527 76.2089 24.3673 76.6102 24.498C77.0115 24.6287 77.4595 24.694 77.9542 24.694C78.6075 24.694 79.1022 24.5167 79.4382 24.162C79.7742 23.8167 79.9422 23.308 79.9422 22.636V21.432C79.7462 21.8707 79.4429 22.2067 79.0322 22.44C78.6309 22.6733 78.1549 22.79 77.6042 22.79C77.0069 22.79 76.4749 22.65 76.0082 22.37C75.5509 22.09 75.1915 21.6933 74.9302 21.18C74.6782 20.6667 74.5522 20.074 74.5522 19.402C74.5522 18.73 74.6782 18.1373 74.9302 17.624C75.1915 17.1107 75.5509 16.714 76.0082 16.434C76.4749 16.154 77.0069 16.014 77.6042 16.014C78.1455 16.014 78.6169 16.1307 79.0182 16.364C79.4195 16.5973 79.7229 16.9287 79.9282 17.358V16.182H81.0622ZM77.8282 21.852C78.4815 21.852 78.9949 21.6373 79.3682 21.208C79.7415 20.7693 79.9282 20.1673 79.9282 19.402C79.9282 18.646 79.7415 18.0533 79.3682 17.624C79.0042 17.1853 78.4909 16.966 77.8282 16.966C77.1655 16.966 76.6429 17.1853 76.2602 17.624C75.8869 18.0533 75.7002 18.646 75.7002 19.402C75.7002 20.1673 75.8869 20.7693 76.2602 21.208C76.6429 21.6373 77.1655 21.852 77.8282 21.852ZM90.2007 16.014C91.834 16.014 92.6507 16.9147 92.6507 18.716V23H91.5167V18.786C91.5167 18.1513 91.3907 17.6893 91.1387 17.4C90.896 17.1107 90.504 16.966 89.9627 16.966C89.3374 16.966 88.838 17.1573 88.4647 17.54C88.0914 17.9227 87.9047 18.4407 87.9047 19.094V23H86.7707V16.182H87.8907V17.302C88.1147 16.882 88.4274 16.5647 88.8287 16.35C89.23 16.126 89.6874 16.014 90.2007 16.014ZM98.1577 16.014C99.7911 16.014 100.608 16.9147 100.608 18.716V23H99.4737V18.786C99.4737 18.1513 99.3477 17.6893 99.0957 17.4C98.8531 17.1107 98.4611 16.966 97.9197 16.966C97.2944 16.966 96.7951 17.1573 96.4217 17.54C96.0484 17.9227 95.8617 18.4407 95.8617 19.094V23H94.7277V13.13H95.8617V17.274C96.0857 16.8633 96.3937 16.5507 96.7857 16.336C97.1871 16.1213 97.6444 16.014 98.1577 16.014ZM105.457 16.014C106.325 16.014 106.969 16.238 107.389 16.686C107.818 17.1247 108.033 17.7967 108.033 18.702V23H106.927V21.838C106.749 22.2393 106.479 22.552 106.115 22.776C105.751 22.9907 105.331 23.098 104.855 23.098C104.416 23.098 104.01 23.0093 103.637 22.832C103.273 22.6547 102.983 22.4073 102.769 22.09C102.554 21.7727 102.447 21.4227 102.447 21.04C102.447 20.5267 102.577 20.13 102.839 19.85C103.1 19.5607 103.529 19.3553 104.127 19.234C104.724 19.1033 105.555 19.038 106.619 19.038H106.927V18.576C106.927 18.0067 106.81 17.596 106.577 17.344C106.343 17.0827 105.965 16.952 105.443 16.952C104.659 16.952 103.879 17.1947 103.105 17.68L102.727 16.854C103.081 16.602 103.506 16.4013 104.001 16.252C104.505 16.0933 104.99 16.014 105.457 16.014ZM105.009 22.202C105.569 22.202 106.026 22.0153 106.381 21.642C106.745 21.2593 106.927 20.7693 106.927 20.172V19.766H106.675C105.853 19.766 105.228 19.8033 104.799 19.878C104.369 19.9433 104.061 20.06 103.875 20.228C103.697 20.3867 103.609 20.6247 103.609 20.942C103.609 21.306 103.739 21.6093 104.001 21.852C104.271 22.0853 104.607 22.202 105.009 22.202ZM104.785 24.316H106.073V25.548H104.785V24.316ZM104.463 15.286H103.427L105.079 12.458H105.863L107.515 15.286H106.479L105.471 13.284L104.463 15.286ZM113.539 16.014C114.136 16.014 114.663 16.1633 115.121 16.462C115.578 16.7607 115.933 17.1807 116.185 17.722C116.437 18.254 116.563 18.8747 116.563 19.584C116.563 20.2933 116.437 20.914 116.185 21.446C115.933 21.9687 115.578 22.3747 115.121 22.664C114.673 22.9533 114.145 23.098 113.539 23.098C113.007 23.098 112.54 22.9813 112.139 22.748C111.747 22.5147 111.448 22.1833 111.243 21.754V25.52H110.109V16.182H111.243V17.358C111.448 16.9287 111.747 16.5973 112.139 16.364C112.54 16.1307 113.007 16.014 113.539 16.014ZM113.315 22.16C113.977 22.16 114.491 21.936 114.855 21.488C115.219 21.04 115.401 20.4053 115.401 19.584C115.401 18.7627 115.219 18.1233 114.855 17.666C114.491 17.1993 113.977 16.966 113.315 16.966C112.652 16.966 112.139 17.19 111.775 17.638C111.42 18.086 111.243 18.7253 111.243 19.556C111.243 20.3867 111.42 21.0307 111.775 21.488C112.139 21.936 112.652 22.16 113.315 22.16ZM125.296 16.014C125.894 16.014 126.421 16.1587 126.878 16.448C127.336 16.7373 127.69 17.148 127.942 17.68C128.194 18.212 128.32 18.828 128.32 19.528C128.32 20.2373 128.194 20.8627 127.942 21.404C127.69 21.936 127.336 22.3513 126.878 22.65C126.421 22.9487 125.894 23.098 125.296 23.098C124.764 23.098 124.298 22.9813 123.896 22.748C123.504 22.5147 123.206 22.1833 123 21.754V23H121.866V13.13H123V17.358C123.206 16.9287 123.504 16.5973 123.896 16.364C124.298 16.1307 124.764 16.014 125.296 16.014ZM125.072 22.16C125.735 22.16 126.248 21.9313 126.612 21.474C126.976 21.0073 127.158 20.3587 127.158 19.528C127.158 18.716 126.976 18.086 126.612 17.638C126.248 17.19 125.735 16.966 125.072 16.966C124.41 16.966 123.896 17.19 123.532 17.638C123.178 18.086 123 18.7253 123 19.556C123 20.3867 123.178 21.0307 123.532 21.488C123.896 21.936 124.41 22.16 125.072 22.16ZM132.787 16.014C133.655 16.014 134.299 16.238 134.719 16.686C135.148 17.1247 135.363 17.7967 135.363 18.702V23H134.257V21.838C134.08 22.2393 133.809 22.552 133.445 22.776C133.081 22.9907 132.661 23.098 132.185 23.098C131.746 23.098 131.34 23.0093 130.967 22.832C130.603 22.6547 130.314 22.4073 130.099 22.09C129.884 21.7727 129.777 21.4227 129.777 21.04C129.777 20.5267 129.908 20.13 130.169 19.85C130.43 19.5607 130.86 19.3553 131.457 19.234C132.054 19.1033 132.885 19.038 133.949 19.038H134.257V18.576C134.257 18.0067 134.14 17.596 133.907 17.344C133.674 17.0827 133.296 16.952 132.773 16.952C131.989 16.952 131.21 17.1947 130.435 17.68L130.057 16.854C130.412 16.602 130.836 16.4013 131.331 16.252C131.835 16.0933 132.32 16.014 132.787 16.014ZM132.339 22.202C132.899 22.202 133.356 22.0153 133.711 21.642C134.075 21.2593 134.257 20.7693 134.257 20.172V19.766H134.005C133.184 19.766 132.558 19.8033 132.129 19.878C131.7 19.9433 131.392 20.06 131.205 20.228C131.028 20.3867 130.939 20.6247 130.939 20.942C130.939 21.306 131.07 21.6093 131.331 21.852C131.602 22.0853 131.938 22.202 132.339 22.202ZM132.423 13.844L130.575 11.856H131.779L133.179 13.844H132.423ZM132.801 15.356C132.278 15.356 131.816 15.2393 131.415 15.006C131.023 14.7633 130.724 14.3853 130.519 13.872L131.177 13.592C131.382 13.956 131.616 14.2127 131.877 14.362C132.148 14.5113 132.456 14.586 132.801 14.586C133.146 14.586 133.45 14.5113 133.711 14.362C133.982 14.2127 134.22 13.956 134.425 13.592L135.083 13.872C134.878 14.3853 134.574 14.7633 134.173 15.006C133.781 15.2393 133.324 15.356 132.801 15.356ZM140.869 16.014C142.502 16.014 143.319 16.9147 143.319 18.716V23H142.185V18.786C142.185 18.1513 142.059 17.6893 141.807 17.4C141.564 17.1107 141.172 16.966 140.631 16.966C140.005 16.966 139.506 17.1573 139.133 17.54C138.759 17.9227 138.573 18.4407 138.573 19.094V23H137.439V16.182H138.559V17.302C138.783 16.882 139.095 16.5647 139.497 16.35C139.898 16.126 140.355 16.014 140.869 16.014ZM151.5 16.182V22.538C151.5 23.5553 151.238 24.3207 150.716 24.834C150.193 25.3567 149.418 25.618 148.392 25.618C147.197 25.618 146.194 25.31 145.382 24.694L145.76 23.854C146.217 24.1527 146.646 24.3673 147.048 24.498C147.449 24.6287 147.897 24.694 148.392 24.694C149.045 24.694 149.54 24.5167 149.876 24.162C150.212 23.8167 150.38 23.308 150.38 22.636V21.432C150.184 21.8707 149.88 22.2067 149.47 22.44C149.068 22.6733 148.592 22.79 148.042 22.79C147.444 22.79 146.912 22.65 146.446 22.37C145.988 22.09 145.629 21.6933 145.368 21.18C145.116 20.6667 144.99 20.074 144.99 19.402C144.99 18.73 145.116 18.1373 145.368 17.624C145.629 17.1107 145.988 16.714 146.446 16.434C146.912 16.154 147.444 16.014 148.042 16.014C148.583 16.014 149.054 16.1307 149.456 16.364C149.857 16.5973 150.16 16.9287 150.366 17.358V16.182H151.5ZM148.266 21.852C148.919 21.852 149.432 21.6373 149.806 21.208C150.179 20.7693 150.366 20.1673 150.366 19.402C150.366 18.646 150.179 18.0533 149.806 17.624C149.442 17.1853 148.928 16.966 148.266 16.966C147.603 16.966 147.08 17.1853 146.698 17.624C146.324 18.0533 146.138 18.646 146.138 19.402C146.138 20.1673 146.324 20.7693 146.698 21.208C147.08 21.6373 147.603 21.852 148.266 21.852ZM165.188 17.862V22.426C164.796 22.6313 164.283 22.7993 163.648 22.93C163.023 23.0513 162.388 23.112 161.744 23.112C160.764 23.112 159.92 22.9113 159.21 22.51C158.501 22.1087 157.955 21.53 157.572 20.774C157.199 20.018 157.012 19.1127 157.012 18.058C157.012 17.0127 157.199 16.112 157.572 15.356C157.946 14.6 158.482 14.0213 159.182 13.62C159.882 13.2187 160.708 13.018 161.66 13.018C162.351 13.018 162.986 13.1253 163.564 13.34C164.143 13.5453 164.638 13.8533 165.048 14.264L164.614 15.146C164.138 14.7353 163.667 14.4413 163.2 14.264C162.743 14.0867 162.23 13.998 161.66 13.998C160.55 13.998 159.696 14.348 159.098 15.048C158.501 15.748 158.202 16.7513 158.202 18.058C158.202 19.3927 158.506 20.41 159.112 21.11C159.719 21.8007 160.606 22.146 161.772 22.146C162.622 22.146 163.41 22.02 164.138 21.768V18.758H161.688V17.862H165.188ZM170.167 23.098C169.523 23.098 168.954 22.9533 168.459 22.664C167.974 22.3747 167.596 21.964 167.325 21.432C167.064 20.8907 166.933 20.2653 166.933 19.556C166.933 18.8467 167.064 18.226 167.325 17.694C167.596 17.1527 167.974 16.7373 168.459 16.448C168.954 16.1587 169.523 16.014 170.167 16.014C170.811 16.014 171.38 16.1587 171.875 16.448C172.37 16.7373 172.748 17.1527 173.009 17.694C173.28 18.226 173.415 18.8467 173.415 19.556C173.415 20.2653 173.28 20.8907 173.009 21.432C172.748 21.964 172.37 22.3747 171.875 22.664C171.38 22.9533 170.811 23.098 170.167 23.098ZM170.167 22.16C170.839 22.16 171.352 21.9407 171.707 21.502C172.071 21.054 172.253 20.4053 172.253 19.556C172.253 18.7253 172.071 18.086 171.707 17.638C171.343 17.1807 170.83 16.952 170.167 16.952C169.504 16.952 168.991 17.1807 168.627 17.638C168.263 18.086 168.081 18.7253 168.081 19.556C168.081 20.396 168.258 21.04 168.613 21.488C168.977 21.936 169.495 22.16 170.167 22.16ZM177.933 23.098C177.289 23.098 176.719 22.9533 176.225 22.664C175.739 22.3747 175.361 21.964 175.091 21.432C174.829 20.8907 174.699 20.2653 174.699 19.556C174.699 18.8467 174.829 18.226 175.091 17.694C175.361 17.1527 175.739 16.7373 176.225 16.448C176.719 16.1587 177.289 16.014 177.933 16.014C178.577 16.014 179.146 16.1587 179.641 16.448C180.135 16.7373 180.513 17.1527 180.775 17.694C181.045 18.226 181.181 18.8467 181.181 19.556C181.181 20.2653 181.045 20.8907 180.775 21.432C180.513 21.964 180.135 22.3747 179.641 22.664C179.146 22.9533 178.577 23.098 177.933 23.098ZM177.933 22.16C178.605 22.16 179.118 21.9407 179.473 21.502C179.837 21.054 180.019 20.4053 180.019 19.556C180.019 18.7253 179.837 18.086 179.473 17.638C179.109 17.1807 178.595 16.952 177.933 16.952C177.27 16.952 176.757 17.1807 176.393 17.638C176.029 18.086 175.847 18.7253 175.847 19.556C175.847 20.396 176.024 21.04 176.379 21.488C176.743 21.936 177.261 22.16 177.933 22.16ZM188.974 16.182V22.538C188.974 23.5553 188.713 24.3207 188.19 24.834C187.668 25.3567 186.893 25.618 185.866 25.618C184.672 25.618 183.668 25.31 182.856 24.694L183.234 23.854C183.692 24.1527 184.121 24.3673 184.522 24.498C184.924 24.6287 185.372 24.694 185.866 24.694C186.52 24.694 187.014 24.5167 187.35 24.162C187.686 23.8167 187.854 23.308 187.854 22.636V21.432C187.658 21.8707 187.355 22.2067 186.944 22.44C186.543 22.6733 186.067 22.79 185.516 22.79C184.919 22.79 184.387 22.65 183.92 22.37C183.463 22.09 183.104 21.6933 182.842 21.18C182.59 20.6667 182.464 20.074 182.464 19.402C182.464 18.73 182.59 18.1373 182.842 17.624C183.104 17.1107 183.463 16.714 183.92 16.434C184.387 16.154 184.919 16.014 185.516 16.014C186.058 16.014 186.529 16.1307 186.93 16.364C187.332 16.5973 187.635 16.9287 187.84 17.358V16.182H188.974ZM185.74 21.852C186.394 21.852 186.907 21.6373 187.28 21.208C187.654 20.7693 187.84 20.1673 187.84 19.402C187.84 18.646 187.654 18.0533 187.28 17.624C186.916 17.1853 186.403 16.966 185.74 16.966C185.078 16.966 184.555 17.1853 184.172 17.624C183.799 18.0533 183.612 18.646 183.612 19.402C183.612 20.1673 183.799 20.7693 184.172 21.208C184.555 21.6373 185.078 21.852 185.74 21.852ZM191.073 23V13.13H192.207V23H191.073ZM200.039 19.766H195.055C195.093 20.5593 195.307 21.1613 195.699 21.572C196.091 21.9733 196.647 22.174 197.365 22.174C198.159 22.174 198.887 21.9033 199.549 21.362L199.927 22.188C199.629 22.468 199.246 22.692 198.779 22.86C198.313 23.0187 197.837 23.098 197.351 23.098C196.287 23.098 195.447 22.7853 194.831 22.16C194.225 21.5347 193.921 20.6713 193.921 19.57C193.921 18.87 194.057 18.254 194.327 17.722C194.598 17.1807 194.976 16.7607 195.461 16.462C195.956 16.1633 196.516 16.014 197.141 16.014C198.047 16.014 198.756 16.3127 199.269 16.91C199.783 17.498 200.039 18.31 200.039 19.346V19.766ZM197.155 16.896C196.558 16.896 196.077 17.0827 195.713 17.456C195.359 17.8293 195.149 18.3567 195.083 19.038H199.045C199.027 18.3473 198.854 17.82 198.527 17.456C198.201 17.0827 197.743 16.896 197.155 16.896Z" fill="white"/>
<path d="M26 17.6988C26 22.5486 22.823 26 18.1311 26C13.6328 26 10 22.2024 10 17.5C10 12.7976 13.6328 9 18.1311 9C20.3213 9 22.1639 9.83972 23.5836 11.2244L21.3705 13.4488C18.4754 10.5286 13.0918 12.7222 13.0918 17.5C13.0918 20.4647 15.3574 22.8673 18.1311 22.8673C21.3508 22.8673 22.5574 20.4544 22.7475 19.2034H18.1311V16.2798H25.8721C25.9475 16.7151 26 17.1333 26 17.6988Z" fill="#FAFAFA"/>
</svg>
