<svg width="228" height="36" viewBox="0 0 228 36" fill="none" xmlns="http://www.w3.org/2000/svg">
<rect width="228" height="36" rx="3" fill="#FFDD00"/>
<path d="M52.718 13.13C54.3047 13.13 55.5273 13.5593 56.386 14.418C57.2447 15.2673 57.674 16.4807 57.674 18.058C57.674 19.6353 57.24 20.8533 56.372 21.712C55.5133 22.5707 54.2953 23 52.718 23H49.4V18.464H48.112V17.526H49.4V13.13H52.718ZM52.662 22.02C53.9313 22.02 54.888 21.6887 55.532 21.026C56.176 20.3633 56.498 19.374 56.498 18.058C56.498 15.426 55.2193 14.11 52.662 14.11H50.548V17.526H53.25V18.464H50.548V22.02H52.662ZM62.3493 16.014C63.2173 16.014 63.8613 16.238 64.2813 16.686C64.7107 17.1247 64.9253 17.7967 64.9253 18.702V23H63.8193V21.838C63.642 22.2393 63.3713 22.552 63.0073 22.776C62.6433 22.9907 62.2233 23.098 61.7473 23.098C61.3087 23.098 60.9027 23.0093 60.5293 22.832C60.1653 22.6547 59.876 22.4073 59.6613 22.09C59.4467 21.7727 59.3393 21.4227 59.3393 21.04C59.3393 20.5267 59.47 20.13 59.7313 19.85C59.9927 19.5607 60.422 19.3553 61.0193 19.234C61.6167 19.1033 62.4473 19.038 63.5113 19.038H63.8193V18.576C63.8193 18.0067 63.7027 17.596 63.4693 17.344C63.236 17.0827 62.858 16.952 62.3353 16.952C61.5513 16.952 60.772 17.1947 59.9973 17.68L59.6193 16.854C59.974 16.602 60.3987 16.4013 60.8933 16.252C61.3973 16.0933 61.8827 16.014 62.3493 16.014ZM61.9013 22.202C62.4613 22.202 62.9187 22.0153 63.2733 21.642C63.6373 21.2593 63.8193 20.7693 63.8193 20.172V19.766H63.5673C62.746 19.766 62.1207 19.8033 61.6913 19.878C61.262 19.9433 60.954 20.06 60.7673 20.228C60.59 20.3867 60.5013 20.6247 60.5013 20.942C60.5013 21.306 60.632 21.6093 60.8933 21.852C61.164 22.0853 61.5 22.202 61.9013 22.202ZM62.3633 14.866C61.85 14.866 61.3833 14.7213 60.9633 14.432C60.5527 14.1427 60.2493 13.6947 60.0533 13.088L60.7673 12.794C61.15 13.6153 61.682 14.026 62.3633 14.026C63.0447 14.026 63.5767 13.6153 63.9593 12.794L64.6733 13.088C64.4867 13.6947 64.1833 14.1427 63.7633 14.432C63.3527 14.7213 62.886 14.866 62.3633 14.866ZM70.4312 16.014C72.0645 16.014 72.8812 16.9147 72.8812 18.716V23H71.7472V18.786C71.7472 18.1513 71.6212 17.6893 71.3692 17.4C71.1265 17.1107 70.7345 16.966 70.1932 16.966C69.5678 16.966 69.0685 17.1573 68.6952 17.54C68.3218 17.9227 68.1352 18.4407 68.1352 19.094V23H67.0012V16.182H68.1212V17.302C68.3452 16.882 68.6578 16.5647 69.0592 16.35C69.4605 16.126 69.9178 16.014 70.4312 16.014ZM81.0622 16.182V22.538C81.0622 23.5553 80.8009 24.3207 80.2782 24.834C79.7555 25.3567 78.9809 25.618 77.9542 25.618C76.7595 25.618 75.7562 25.31 74.9442 24.694L75.3222 23.854C75.7795 24.1527 76.2089 24.3673 76.6102 24.498C77.0115 24.6287 77.4595 24.694 77.9542 24.694C78.6075 24.694 79.1022 24.5167 79.4382 24.162C79.7742 23.8167 79.9422 23.308 79.9422 22.636V21.432C79.7462 21.8707 79.4429 22.2067 79.0322 22.44C78.6309 22.6733 78.1549 22.79 77.6042 22.79C77.0069 22.79 76.4749 22.65 76.0082 22.37C75.5509 22.09 75.1915 21.6933 74.9302 21.18C74.6782 20.6667 74.5522 20.074 74.5522 19.402C74.5522 18.73 74.6782 18.1373 74.9302 17.624C75.1915 17.1107 75.5509 16.714 76.0082 16.434C76.4749 16.154 77.0069 16.014 77.6042 16.014C78.1455 16.014 78.6169 16.1307 79.0182 16.364C79.4195 16.5973 79.7229 16.9287 79.9282 17.358V16.182H81.0622ZM77.8282 21.852C78.4815 21.852 78.9949 21.6373 79.3682 21.208C79.7415 20.7693 79.9282 20.1673 79.9282 19.402C79.9282 18.646 79.7415 18.0533 79.3682 17.624C79.0042 17.1853 78.4909 16.966 77.8282 16.966C77.1655 16.966 76.6429 17.1853 76.2602 17.624C75.8869 18.0533 75.7002 18.646 75.7002 19.402C75.7002 20.1673 75.8869 20.7693 76.2602 21.208C76.6429 21.6373 77.1655 21.852 77.8282 21.852ZM90.2007 16.014C91.834 16.014 92.6507 16.9147 92.6507 18.716V23H91.5167V18.786C91.5167 18.1513 91.3907 17.6893 91.1387 17.4C90.896 17.1107 90.504 16.966 89.9627 16.966C89.3374 16.966 88.838 17.1573 88.4647 17.54C88.0914 17.9227 87.9047 18.4407 87.9047 19.094V23H86.7707V16.182H87.8907V17.302C88.1147 16.882 88.4274 16.5647 88.8287 16.35C89.23 16.126 89.6874 16.014 90.2007 16.014ZM98.1577 16.014C99.7911 16.014 100.608 16.9147 100.608 18.716V23H99.4737V18.786C99.4737 18.1513 99.3477 17.6893 99.0957 17.4C98.8531 17.1107 98.4611 16.966 97.9197 16.966C97.2944 16.966 96.7951 17.1573 96.4217 17.54C96.0484 17.9227 95.8617 18.4407 95.8617 19.094V23H94.7277V13.13H95.8617V17.274C96.0857 16.8633 96.3937 16.5507 96.7857 16.336C97.1871 16.1213 97.6444 16.014 98.1577 16.014ZM105.457 16.014C106.325 16.014 106.969 16.238 107.389 16.686C107.818 17.1247 108.033 17.7967 108.033 18.702V23H106.927V21.838C106.749 22.2393 106.479 22.552 106.115 22.776C105.751 22.9907 105.331 23.098 104.855 23.098C104.416 23.098 104.01 23.0093 103.637 22.832C103.273 22.6547 102.983 22.4073 102.769 22.09C102.554 21.7727 102.447 21.4227 102.447 21.04C102.447 20.5267 102.577 20.13 102.839 19.85C103.1 19.5607 103.529 19.3553 104.127 19.234C104.724 19.1033 105.555 19.038 106.619 19.038H106.927V18.576C106.927 18.0067 106.81 17.596 106.577 17.344C106.343 17.0827 105.965 16.952 105.443 16.952C104.659 16.952 103.879 17.1947 103.105 17.68L102.727 16.854C103.081 16.602 103.506 16.4013 104.001 16.252C104.505 16.0933 104.99 16.014 105.457 16.014ZM105.009 22.202C105.569 22.202 106.026 22.0153 106.381 21.642C106.745 21.2593 106.927 20.7693 106.927 20.172V19.766H106.675C105.853 19.766 105.228 19.8033 104.799 19.878C104.369 19.9433 104.061 20.06 103.875 20.228C103.697 20.3867 103.609 20.6247 103.609 20.942C103.609 21.306 103.739 21.6093 104.001 21.852C104.271 22.0853 104.607 22.202 105.009 22.202ZM104.785 24.316H106.073V25.548H104.785V24.316ZM104.463 15.286H103.427L105.079 12.458H105.863L107.515 15.286H106.479L105.471 13.284L104.463 15.286ZM113.539 16.014C114.136 16.014 114.663 16.1633 115.121 16.462C115.578 16.7607 115.933 17.1807 116.185 17.722C116.437 18.254 116.563 18.8747 116.563 19.584C116.563 20.2933 116.437 20.914 116.185 21.446C115.933 21.9687 115.578 22.3747 115.121 22.664C114.673 22.9533 114.145 23.098 113.539 23.098C113.007 23.098 112.54 22.9813 112.139 22.748C111.747 22.5147 111.448 22.1833 111.243 21.754V25.52H110.109V16.182H111.243V17.358C111.448 16.9287 111.747 16.5973 112.139 16.364C112.54 16.1307 113.007 16.014 113.539 16.014ZM113.315 22.16C113.977 22.16 114.491 21.936 114.855 21.488C115.219 21.04 115.401 20.4053 115.401 19.584C115.401 18.7627 115.219 18.1233 114.855 17.666C114.491 17.1993 113.977 16.966 113.315 16.966C112.652 16.966 112.139 17.19 111.775 17.638C111.42 18.086 111.243 18.7253 111.243 19.556C111.243 20.3867 111.42 21.0307 111.775 21.488C112.139 21.936 112.652 22.16 113.315 22.16ZM125.296 16.014C125.894 16.014 126.421 16.1587 126.878 16.448C127.336 16.7373 127.69 17.148 127.942 17.68C128.194 18.212 128.32 18.828 128.32 19.528C128.32 20.2373 128.194 20.8627 127.942 21.404C127.69 21.936 127.336 22.3513 126.878 22.65C126.421 22.9487 125.894 23.098 125.296 23.098C124.764 23.098 124.298 22.9813 123.896 22.748C123.504 22.5147 123.206 22.1833 123 21.754V23H121.866V13.13H123V17.358C123.206 16.9287 123.504 16.5973 123.896 16.364C124.298 16.1307 124.764 16.014 125.296 16.014ZM125.072 22.16C125.735 22.16 126.248 21.9313 126.612 21.474C126.976 21.0073 127.158 20.3587 127.158 19.528C127.158 18.716 126.976 18.086 126.612 17.638C126.248 17.19 125.735 16.966 125.072 16.966C124.41 16.966 123.896 17.19 123.532 17.638C123.178 18.086 123 18.7253 123 19.556C123 20.3867 123.178 21.0307 123.532 21.488C123.896 21.936 124.41 22.16 125.072 22.16ZM132.787 16.014C133.655 16.014 134.299 16.238 134.719 16.686C135.148 17.1247 135.363 17.7967 135.363 18.702V23H134.257V21.838C134.08 22.2393 133.809 22.552 133.445 22.776C133.081 22.9907 132.661 23.098 132.185 23.098C131.746 23.098 131.34 23.0093 130.967 22.832C130.603 22.6547 130.314 22.4073 130.099 22.09C129.884 21.7727 129.777 21.4227 129.777 21.04C129.777 20.5267 129.908 20.13 130.169 19.85C130.43 19.5607 130.86 19.3553 131.457 19.234C132.054 19.1033 132.885 19.038 133.949 19.038H134.257V18.576C134.257 18.0067 134.14 17.596 133.907 17.344C133.674 17.0827 133.296 16.952 132.773 16.952C131.989 16.952 131.21 17.1947 130.435 17.68L130.057 16.854C130.412 16.602 130.836 16.4013 131.331 16.252C131.835 16.0933 132.32 16.014 132.787 16.014ZM132.339 22.202C132.899 22.202 133.356 22.0153 133.711 21.642C134.075 21.2593 134.257 20.7693 134.257 20.172V19.766H134.005C133.184 19.766 132.558 19.8033 132.129 19.878C131.7 19.9433 131.392 20.06 131.205 20.228C131.028 20.3867 130.939 20.6247 130.939 20.942C130.939 21.306 131.07 21.6093 131.331 21.852C131.602 22.0853 131.938 22.202 132.339 22.202ZM132.423 13.844L130.575 11.856H131.779L133.179 13.844H132.423ZM132.801 15.356C132.278 15.356 131.816 15.2393 131.415 15.006C131.023 14.7633 130.724 14.3853 130.519 13.872L131.177 13.592C131.382 13.956 131.616 14.2127 131.877 14.362C132.148 14.5113 132.456 14.586 132.801 14.586C133.146 14.586 133.45 14.5113 133.711 14.362C133.982 14.2127 134.22 13.956 134.425 13.592L135.083 13.872C134.878 14.3853 134.574 14.7633 134.173 15.006C133.781 15.2393 133.324 15.356 132.801 15.356ZM140.869 16.014C142.502 16.014 143.319 16.9147 143.319 18.716V23H142.185V18.786C142.185 18.1513 142.059 17.6893 141.807 17.4C141.564 17.1107 141.172 16.966 140.631 16.966C140.005 16.966 139.506 17.1573 139.133 17.54C138.759 17.9227 138.573 18.4407 138.573 19.094V23H137.439V16.182H138.559V17.302C138.783 16.882 139.095 16.5647 139.497 16.35C139.898 16.126 140.355 16.014 140.869 16.014ZM151.5 16.182V22.538C151.5 23.5553 151.238 24.3207 150.716 24.834C150.193 25.3567 149.418 25.618 148.392 25.618C147.197 25.618 146.194 25.31 145.382 24.694L145.76 23.854C146.217 24.1527 146.646 24.3673 147.048 24.498C147.449 24.6287 147.897 24.694 148.392 24.694C149.045 24.694 149.54 24.5167 149.876 24.162C150.212 23.8167 150.38 23.308 150.38 22.636V21.432C150.184 21.8707 149.88 22.2067 149.47 22.44C149.068 22.6733 148.592 22.79 148.042 22.79C147.444 22.79 146.912 22.65 146.446 22.37C145.988 22.09 145.629 21.6933 145.368 21.18C145.116 20.6667 144.99 20.074 144.99 19.402C144.99 18.73 145.116 18.1373 145.368 17.624C145.629 17.1107 145.988 16.714 146.446 16.434C146.912 16.154 147.444 16.014 148.042 16.014C148.583 16.014 149.054 16.1307 149.456 16.364C149.857 16.5973 150.16 16.9287 150.366 17.358V16.182H151.5ZM148.266 21.852C148.919 21.852 149.432 21.6373 149.806 21.208C150.179 20.7693 150.366 20.1673 150.366 19.402C150.366 18.646 150.179 18.0533 149.806 17.624C149.442 17.1853 148.928 16.966 148.266 16.966C147.603 16.966 147.08 17.1853 146.698 17.624C146.324 18.0533 146.138 18.646 146.138 19.402C146.138 20.1673 146.324 20.7693 146.698 21.208C147.08 21.6373 147.603 21.852 148.266 21.852ZM160.512 23.112C158.972 23.112 157.74 22.6967 156.816 21.866L157.264 20.984C157.75 21.3947 158.244 21.6887 158.748 21.866C159.262 22.0433 159.854 22.132 160.526 22.132C161.32 22.132 161.931 21.978 162.36 21.67C162.79 21.362 163.004 20.928 163.004 20.368C163.004 20.0413 162.902 19.7753 162.696 19.57C162.491 19.3647 162.22 19.2013 161.884 19.08C161.548 18.9587 161.096 18.8327 160.526 18.702C159.761 18.5247 159.131 18.338 158.636 18.142C158.151 17.946 157.754 17.666 157.446 17.302C157.148 16.938 156.998 16.462 156.998 15.874C156.998 15.314 157.143 14.8193 157.432 14.39C157.731 13.9513 158.151 13.6153 158.692 13.382C159.243 13.1393 159.878 13.018 160.596 13.018C161.278 13.018 161.912 13.1253 162.5 13.34C163.098 13.5547 163.602 13.8627 164.012 14.264L163.578 15.146C163.112 14.7447 162.636 14.4553 162.15 14.278C161.674 14.0913 161.156 13.998 160.596 13.998C159.831 13.998 159.229 14.1613 158.79 14.488C158.361 14.8053 158.146 15.2533 158.146 15.832C158.146 16.3267 158.338 16.7 158.72 16.952C159.103 17.204 159.682 17.4187 160.456 17.596C161.306 17.8013 161.973 17.9927 162.458 18.17C162.944 18.338 163.345 18.5947 163.662 18.94C163.989 19.2853 164.152 19.7473 164.152 20.326C164.152 20.886 164.003 21.376 163.704 21.796C163.415 22.216 162.995 22.5427 162.444 22.776C161.894 23 161.25 23.112 160.512 23.112ZM174.403 13.13H175.341V23H174.291L174.305 15.356L171.099 21.432H170.287L167.067 15.412L167.081 23H166.017V13.13H166.969L170.707 20.284L174.403 13.13ZM180.924 23.112C179.384 23.112 178.152 22.6967 177.228 21.866L177.676 20.984C178.162 21.3947 178.656 21.6887 179.16 21.866C179.674 22.0433 180.266 22.132 180.938 22.132C181.732 22.132 182.343 21.978 182.772 21.67C183.202 21.362 183.416 20.928 183.416 20.368C183.416 20.0413 183.314 19.7753 183.108 19.57C182.903 19.3647 182.632 19.2013 182.296 19.08C181.96 18.9587 181.508 18.8327 180.938 18.702C180.173 18.5247 179.543 18.338 179.048 18.142C178.563 17.946 178.166 17.666 177.858 17.302C177.56 16.938 177.41 16.462 177.41 15.874C177.41 15.314 177.555 14.8193 177.844 14.39C178.143 13.9513 178.563 13.6153 179.104 13.382C179.655 13.1393 180.29 13.018 181.008 13.018C181.69 13.018 182.324 13.1253 182.912 13.34C183.51 13.5547 184.014 13.8627 184.424 14.264L183.99 15.146C183.524 14.7447 183.048 14.4553 182.562 14.278C182.086 14.0913 181.568 13.998 181.008 13.998C180.243 13.998 179.641 14.1613 179.202 14.488C178.773 14.8053 178.558 15.2533 178.558 15.832C178.558 16.3267 178.75 16.7 179.132 16.952C179.515 17.204 180.094 17.4187 180.868 17.596C181.718 17.8013 182.385 17.9927 182.87 18.17C183.356 18.338 183.757 18.5947 184.074 18.94C184.401 19.2853 184.564 19.7473 184.564 20.326C184.564 20.886 184.415 21.376 184.116 21.796C183.827 22.216 183.407 22.5427 182.856 22.776C182.306 23 181.662 23.112 180.924 23.112Z" fill="#373435"/>
<path opacity="0.3" d="M36 5V30.5" stroke="#808084"/>
<g clip-path="url(#clip0)">
<path d="M22.625 8H13.875C12.8398 8 12 8.83984 12 9.875V26.125C12 27.1602 12.8398 28 13.875 28H22.625C23.6602 28 24.5 27.1602 24.5 26.125V9.875C24.5 8.83984 23.6602 8 22.625 8ZM18.25 26.75C17.5586 26.75 17 26.1914 17 25.5C17 24.8086 17.5586 24.25 18.25 24.25C18.9414 24.25 19.5 24.8086 19.5 25.5C19.5 26.1914 18.9414 26.75 18.25 26.75ZM22.625 22.5312C22.625 22.7891 22.4141 23 22.1562 23H14.3438C14.0859 23 13.875 22.7891 13.875 22.5312V10.3438C13.875 10.0859 14.0859 9.875 14.3438 9.875H22.1562C22.4141 9.875 22.625 10.0859 22.625 10.3438V22.5312Z" fill="#606062"/>
</g>
<defs>
<clipPath id="clip0">
<rect width="12.5" height="20" fill="white" transform="translate(12 8)"/>
</clipPath>
</defs>
</svg>
