<svg width="228" height="36" viewBox="0 0 228 36" fill="none" xmlns="http://www.w3.org/2000/svg">
<rect width="228" height="36" rx="3" fill="#3A5898"/>
<path d="M52.718 13.13C54.3047 13.13 55.5273 13.5593 56.386 14.418C57.2447 15.2673 57.674 16.4807 57.674 18.058C57.674 19.6353 57.24 20.8533 56.372 21.712C55.5133 22.5707 54.2953 23 52.718 23H49.4V18.464H48.112V17.526H49.4V13.13H52.718ZM52.662 22.02C53.9313 22.02 54.888 21.6887 55.532 21.026C56.176 20.3633 56.498 19.374 56.498 18.058C56.498 15.426 55.2193 14.11 52.662 14.11H50.548V17.526H53.25V18.464H50.548V22.02H52.662ZM62.3493 16.014C63.2173 16.014 63.8613 16.238 64.2813 16.686C64.7107 17.1247 64.9253 17.7967 64.9253 18.702V23H63.8193V21.838C63.642 22.2393 63.3713 22.552 63.0073 22.776C62.6433 22.9907 62.2233 23.098 61.7473 23.098C61.3087 23.098 60.9027 23.0093 60.5293 22.832C60.1653 22.6547 59.876 22.4073 59.6613 22.09C59.4467 21.7727 59.3393 21.4227 59.3393 21.04C59.3393 20.5267 59.47 20.13 59.7313 19.85C59.9927 19.5607 60.422 19.3553 61.0193 19.234C61.6167 19.1033 62.4473 19.038 63.5113 19.038H63.8193V18.576C63.8193 18.0067 63.7027 17.596 63.4693 17.344C63.236 17.0827 62.858 16.952 62.3353 16.952C61.5513 16.952 60.772 17.1947 59.9973 17.68L59.6193 16.854C59.974 16.602 60.3987 16.4013 60.8933 16.252C61.3973 16.0933 61.8827 16.014 62.3493 16.014ZM61.9013 22.202C62.4613 22.202 62.9187 22.0153 63.2733 21.642C63.6373 21.2593 63.8193 20.7693 63.8193 20.172V19.766H63.5673C62.746 19.766 62.1207 19.8033 61.6913 19.878C61.262 19.9433 60.954 20.06 60.7673 20.228C60.59 20.3867 60.5013 20.6247 60.5013 20.942C60.5013 21.306 60.632 21.6093 60.8933 21.852C61.164 22.0853 61.5 22.202 61.9013 22.202ZM62.3633 14.866C61.85 14.866 61.3833 14.7213 60.9633 14.432C60.5527 14.1427 60.2493 13.6947 60.0533 13.088L60.7673 12.794C61.15 13.6153 61.682 14.026 62.3633 14.026C63.0447 14.026 63.5767 13.6153 63.9593 12.794L64.6733 13.088C64.4867 13.6947 64.1833 14.1427 63.7633 14.432C63.3527 14.7213 62.886 14.866 62.3633 14.866ZM70.4312 16.014C72.0645 16.014 72.8812 16.9147 72.8812 18.716V23H71.7472V18.786C71.7472 18.1513 71.6212 17.6893 71.3692 17.4C71.1265 17.1107 70.7345 16.966 70.1932 16.966C69.5678 16.966 69.0685 17.1573 68.6952 17.54C68.3218 17.9227 68.1352 18.4407 68.1352 19.094V23H67.0012V16.182H68.1212V17.302C68.3452 16.882 68.6578 16.5647 69.0592 16.35C69.4605 16.126 69.9178 16.014 70.4312 16.014ZM81.0622 16.182V22.538C81.0622 23.5553 80.8009 24.3207 80.2782 24.834C79.7555 25.3567 78.9809 25.618 77.9542 25.618C76.7595 25.618 75.7562 25.31 74.9442 24.694L75.3222 23.854C75.7795 24.1527 76.2089 24.3673 76.6102 24.498C77.0115 24.6287 77.4595 24.694 77.9542 24.694C78.6075 24.694 79.1022 24.5167 79.4382 24.162C79.7742 23.8167 79.9422 23.308 79.9422 22.636V21.432C79.7462 21.8707 79.4429 22.2067 79.0322 22.44C78.6309 22.6733 78.1549 22.79 77.6042 22.79C77.0069 22.79 76.4749 22.65 76.0082 22.37C75.5509 22.09 75.1915 21.6933 74.9302 21.18C74.6782 20.6667 74.5522 20.074 74.5522 19.402C74.5522 18.73 74.6782 18.1373 74.9302 17.624C75.1915 17.1107 75.5509 16.714 76.0082 16.434C76.4749 16.154 77.0069 16.014 77.6042 16.014C78.1455 16.014 78.6169 16.1307 79.0182 16.364C79.4195 16.5973 79.7229 16.9287 79.9282 17.358V16.182H81.0622ZM77.8282 21.852C78.4815 21.852 78.9949 21.6373 79.3682 21.208C79.7415 20.7693 79.9282 20.1673 79.9282 19.402C79.9282 18.646 79.7415 18.0533 79.3682 17.624C79.0042 17.1853 78.4909 16.966 77.8282 16.966C77.1655 16.966 76.6429 17.1853 76.2602 17.624C75.8869 18.0533 75.7002 18.646 75.7002 19.402C75.7002 20.1673 75.8869 20.7693 76.2602 21.208C76.6429 21.6373 77.1655 21.852 77.8282 21.852ZM90.2007 16.014C91.834 16.014 92.6507 16.9147 92.6507 18.716V23H91.5167V18.786C91.5167 18.1513 91.3907 17.6893 91.1387 17.4C90.896 17.1107 90.504 16.966 89.9627 16.966C89.3374 16.966 88.838 17.1573 88.4647 17.54C88.0914 17.9227 87.9047 18.4407 87.9047 19.094V23H86.7707V16.182H87.8907V17.302C88.1147 16.882 88.4274 16.5647 88.8287 16.35C89.23 16.126 89.6874 16.014 90.2007 16.014ZM98.1577 16.014C99.7911 16.014 100.608 16.9147 100.608 18.716V23H99.4737V18.786C99.4737 18.1513 99.3477 17.6893 99.0957 17.4C98.8531 17.1107 98.4611 16.966 97.9197 16.966C97.2944 16.966 96.7951 17.1573 96.4217 17.54C96.0484 17.9227 95.8617 18.4407 95.8617 19.094V23H94.7277V13.13H95.8617V17.274C96.0857 16.8633 96.3937 16.5507 96.7857 16.336C97.1871 16.1213 97.6444 16.014 98.1577 16.014ZM105.457 16.014C106.325 16.014 106.969 16.238 107.389 16.686C107.818 17.1247 108.033 17.7967 108.033 18.702V23H106.927V21.838C106.749 22.2393 106.479 22.552 106.115 22.776C105.751 22.9907 105.331 23.098 104.855 23.098C104.416 23.098 104.01 23.0093 103.637 22.832C103.273 22.6547 102.983 22.4073 102.769 22.09C102.554 21.7727 102.447 21.4227 102.447 21.04C102.447 20.5267 102.577 20.13 102.839 19.85C103.1 19.5607 103.529 19.3553 104.127 19.234C104.724 19.1033 105.555 19.038 106.619 19.038H106.927V18.576C106.927 18.0067 106.81 17.596 106.577 17.344C106.343 17.0827 105.965 16.952 105.443 16.952C104.659 16.952 103.879 17.1947 103.105 17.68L102.727 16.854C103.081 16.602 103.506 16.4013 104.001 16.252C104.505 16.0933 104.99 16.014 105.457 16.014ZM105.009 22.202C105.569 22.202 106.026 22.0153 106.381 21.642C106.745 21.2593 106.927 20.7693 106.927 20.172V19.766H106.675C105.853 19.766 105.228 19.8033 104.799 19.878C104.369 19.9433 104.061 20.06 103.875 20.228C103.697 20.3867 103.609 20.6247 103.609 20.942C103.609 21.306 103.739 21.6093 104.001 21.852C104.271 22.0853 104.607 22.202 105.009 22.202ZM104.785 24.316H106.073V25.548H104.785V24.316ZM104.463 15.286H103.427L105.079 12.458H105.863L107.515 15.286H106.479L105.471 13.284L104.463 15.286ZM113.539 16.014C114.136 16.014 114.663 16.1633 115.121 16.462C115.578 16.7607 115.933 17.1807 116.185 17.722C116.437 18.254 116.563 18.8747 116.563 19.584C116.563 20.2933 116.437 20.914 116.185 21.446C115.933 21.9687 115.578 22.3747 115.121 22.664C114.673 22.9533 114.145 23.098 113.539 23.098C113.007 23.098 112.54 22.9813 112.139 22.748C111.747 22.5147 111.448 22.1833 111.243 21.754V25.52H110.109V16.182H111.243V17.358C111.448 16.9287 111.747 16.5973 112.139 16.364C112.54 16.1307 113.007 16.014 113.539 16.014ZM113.315 22.16C113.977 22.16 114.491 21.936 114.855 21.488C115.219 21.04 115.401 20.4053 115.401 19.584C115.401 18.7627 115.219 18.1233 114.855 17.666C114.491 17.1993 113.977 16.966 113.315 16.966C112.652 16.966 112.139 17.19 111.775 17.638C111.42 18.086 111.243 18.7253 111.243 19.556C111.243 20.3867 111.42 21.0307 111.775 21.488C112.139 21.936 112.652 22.16 113.315 22.16ZM125.296 16.014C125.894 16.014 126.421 16.1587 126.878 16.448C127.336 16.7373 127.69 17.148 127.942 17.68C128.194 18.212 128.32 18.828 128.32 19.528C128.32 20.2373 128.194 20.8627 127.942 21.404C127.69 21.936 127.336 22.3513 126.878 22.65C126.421 22.9487 125.894 23.098 125.296 23.098C124.764 23.098 124.298 22.9813 123.896 22.748C123.504 22.5147 123.206 22.1833 123 21.754V23H121.866V13.13H123V17.358C123.206 16.9287 123.504 16.5973 123.896 16.364C124.298 16.1307 124.764 16.014 125.296 16.014ZM125.072 22.16C125.735 22.16 126.248 21.9313 126.612 21.474C126.976 21.0073 127.158 20.3587 127.158 19.528C127.158 18.716 126.976 18.086 126.612 17.638C126.248 17.19 125.735 16.966 125.072 16.966C124.41 16.966 123.896 17.19 123.532 17.638C123.178 18.086 123 18.7253 123 19.556C123 20.3867 123.178 21.0307 123.532 21.488C123.896 21.936 124.41 22.16 125.072 22.16ZM132.787 16.014C133.655 16.014 134.299 16.238 134.719 16.686C135.148 17.1247 135.363 17.7967 135.363 18.702V23H134.257V21.838C134.08 22.2393 133.809 22.552 133.445 22.776C133.081 22.9907 132.661 23.098 132.185 23.098C131.746 23.098 131.34 23.0093 130.967 22.832C130.603 22.6547 130.314 22.4073 130.099 22.09C129.884 21.7727 129.777 21.4227 129.777 21.04C129.777 20.5267 129.908 20.13 130.169 19.85C130.43 19.5607 130.86 19.3553 131.457 19.234C132.054 19.1033 132.885 19.038 133.949 19.038H134.257V18.576C134.257 18.0067 134.14 17.596 133.907 17.344C133.674 17.0827 133.296 16.952 132.773 16.952C131.989 16.952 131.21 17.1947 130.435 17.68L130.057 16.854C130.412 16.602 130.836 16.4013 131.331 16.252C131.835 16.0933 132.32 16.014 132.787 16.014ZM132.339 22.202C132.899 22.202 133.356 22.0153 133.711 21.642C134.075 21.2593 134.257 20.7693 134.257 20.172V19.766H134.005C133.184 19.766 132.558 19.8033 132.129 19.878C131.7 19.9433 131.392 20.06 131.205 20.228C131.028 20.3867 130.939 20.6247 130.939 20.942C130.939 21.306 131.07 21.6093 131.331 21.852C131.602 22.0853 131.938 22.202 132.339 22.202ZM132.423 13.844L130.575 11.856H131.779L133.179 13.844H132.423ZM132.801 15.356C132.278 15.356 131.816 15.2393 131.415 15.006C131.023 14.7633 130.724 14.3853 130.519 13.872L131.177 13.592C131.382 13.956 131.616 14.2127 131.877 14.362C132.148 14.5113 132.456 14.586 132.801 14.586C133.146 14.586 133.45 14.5113 133.711 14.362C133.982 14.2127 134.22 13.956 134.425 13.592L135.083 13.872C134.878 14.3853 134.574 14.7633 134.173 15.006C133.781 15.2393 133.324 15.356 132.801 15.356ZM140.869 16.014C142.502 16.014 143.319 16.9147 143.319 18.716V23H142.185V18.786C142.185 18.1513 142.059 17.6893 141.807 17.4C141.564 17.1107 141.172 16.966 140.631 16.966C140.005 16.966 139.506 17.1573 139.133 17.54C138.759 17.9227 138.573 18.4407 138.573 19.094V23H137.439V16.182H138.559V17.302C138.783 16.882 139.095 16.5647 139.497 16.35C139.898 16.126 140.355 16.014 140.869 16.014ZM151.5 16.182V22.538C151.5 23.5553 151.238 24.3207 150.716 24.834C150.193 25.3567 149.418 25.618 148.392 25.618C147.197 25.618 146.194 25.31 145.382 24.694L145.76 23.854C146.217 24.1527 146.646 24.3673 147.048 24.498C147.449 24.6287 147.897 24.694 148.392 24.694C149.045 24.694 149.54 24.5167 149.876 24.162C150.212 23.8167 150.38 23.308 150.38 22.636V21.432C150.184 21.8707 149.88 22.2067 149.47 22.44C149.068 22.6733 148.592 22.79 148.042 22.79C147.444 22.79 146.912 22.65 146.446 22.37C145.988 22.09 145.629 21.6933 145.368 21.18C145.116 20.6667 144.99 20.074 144.99 19.402C144.99 18.73 145.116 18.1373 145.368 17.624C145.629 17.1107 145.988 16.714 146.446 16.434C146.912 16.154 147.444 16.014 148.042 16.014C148.583 16.014 149.054 16.1307 149.456 16.364C149.857 16.5973 150.16 16.9287 150.366 17.358V16.182H151.5ZM148.266 21.852C148.919 21.852 149.432 21.6373 149.806 21.208C150.179 20.7693 150.366 20.1673 150.366 19.402C150.366 18.646 150.179 18.0533 149.806 17.624C149.442 17.1853 148.928 16.966 148.266 16.966C147.603 16.966 147.08 17.1853 146.698 17.624C146.324 18.0533 146.138 18.646 146.138 19.402C146.138 20.1673 146.324 20.7693 146.698 21.208C147.08 21.6373 147.603 21.852 148.266 21.852ZM157.376 23V13.13H163.48V14.096H158.51V17.498H163.2V18.464H158.51V23H157.376ZM167.568 16.014C168.436 16.014 169.08 16.238 169.5 16.686C169.929 17.1247 170.144 17.7967 170.144 18.702V23H169.038V21.838C168.861 22.2393 168.59 22.552 168.226 22.776C167.862 22.9907 167.442 23.098 166.966 23.098C166.527 23.098 166.121 23.0093 165.748 22.832C165.384 22.6547 165.095 22.4073 164.88 22.09C164.665 21.7727 164.558 21.4227 164.558 21.04C164.558 20.5267 164.689 20.13 164.95 19.85C165.211 19.5607 165.641 19.3553 166.238 19.234C166.835 19.1033 167.666 19.038 168.73 19.038H169.038V18.576C169.038 18.0067 168.921 17.596 168.688 17.344C168.455 17.0827 168.077 16.952 167.554 16.952C166.77 16.952 165.991 17.1947 165.216 17.68L164.838 16.854C165.193 16.602 165.617 16.4013 166.112 16.252C166.616 16.0933 167.101 16.014 167.568 16.014ZM167.12 22.202C167.68 22.202 168.137 22.0153 168.492 21.642C168.856 21.2593 169.038 20.7693 169.038 20.172V19.766H168.786C167.965 19.766 167.339 19.8033 166.91 19.878C166.481 19.9433 166.173 20.06 165.986 20.228C165.809 20.3867 165.72 20.6247 165.72 20.942C165.72 21.306 165.851 21.6093 166.112 21.852C166.383 22.0853 166.719 22.202 167.12 22.202ZM175.104 23.098C174.432 23.098 173.849 22.9533 173.354 22.664C172.859 22.3747 172.477 21.9687 172.206 21.446C171.945 20.914 171.814 20.2933 171.814 19.584C171.814 18.8747 171.949 18.254 172.22 17.722C172.5 17.1807 172.887 16.7607 173.382 16.462C173.886 16.1633 174.474 16.014 175.146 16.014C175.603 16.014 176.051 16.098 176.49 16.266C176.929 16.4247 177.283 16.6393 177.554 16.91L177.176 17.75C176.532 17.2273 175.879 16.966 175.216 16.966C174.516 16.966 173.97 17.1947 173.578 17.652C173.186 18.1093 172.99 18.7533 172.99 19.584C172.99 20.4053 173.186 21.04 173.578 21.488C173.97 21.936 174.516 22.16 175.216 22.16C175.879 22.16 176.532 21.8987 177.176 21.376L177.554 22.216C177.265 22.4867 176.901 22.7013 176.462 22.86C176.023 23.0187 175.571 23.098 175.104 23.098ZM184.631 19.766H179.647C179.684 20.5593 179.899 21.1613 180.291 21.572C180.683 21.9733 181.238 22.174 181.957 22.174C182.75 22.174 183.478 21.9033 184.141 21.362L184.519 22.188C184.22 22.468 183.838 22.692 183.371 22.86C182.904 23.0187 182.428 23.098 181.943 23.098C180.879 23.098 180.039 22.7853 179.423 22.16C178.816 21.5347 178.513 20.6713 178.513 19.57C178.513 18.87 178.648 18.254 178.919 17.722C179.19 17.1807 179.568 16.7607 180.053 16.462C180.548 16.1633 181.108 16.014 181.733 16.014C182.638 16.014 183.348 16.3127 183.861 16.91C184.374 17.498 184.631 18.31 184.631 19.346V19.766ZM181.747 16.896C181.15 16.896 180.669 17.0827 180.305 17.456C179.95 17.8293 179.74 18.3567 179.675 19.038H183.637C183.618 18.3473 183.446 17.82 183.119 17.456C182.792 17.0827 182.335 16.896 181.747 16.896ZM189.732 16.014C190.329 16.014 190.857 16.1587 191.314 16.448C191.771 16.7373 192.126 17.148 192.378 17.68C192.63 18.212 192.756 18.828 192.756 19.528C192.756 20.2373 192.63 20.8627 192.378 21.404C192.126 21.936 191.771 22.3513 191.314 22.65C190.857 22.9487 190.329 23.098 189.732 23.098C189.2 23.098 188.733 22.9813 188.332 22.748C187.94 22.5147 187.641 22.1833 187.436 21.754V23H186.302V13.13H187.436V17.358C187.641 16.9287 187.94 16.5973 188.332 16.364C188.733 16.1307 189.2 16.014 189.732 16.014ZM189.508 22.16C190.171 22.16 190.684 21.9313 191.048 21.474C191.412 21.0073 191.594 20.3587 191.594 19.528C191.594 18.716 191.412 18.086 191.048 17.638C190.684 17.19 190.171 16.966 189.508 16.966C188.845 16.966 188.332 17.19 187.968 17.638C187.613 18.086 187.436 18.7253 187.436 19.556C187.436 20.3867 187.613 21.0307 187.968 21.488C188.332 21.936 188.845 22.16 189.508 22.16ZM197.278 23.098C196.634 23.098 196.065 22.9533 195.57 22.664C195.085 22.3747 194.707 21.964 194.436 21.432C194.175 20.8907 194.044 20.2653 194.044 19.556C194.044 18.8467 194.175 18.226 194.436 17.694C194.707 17.1527 195.085 16.7373 195.57 16.448C196.065 16.1587 196.634 16.014 197.278 16.014C197.922 16.014 198.492 16.1587 198.986 16.448C199.481 16.7373 199.859 17.1527 200.12 17.694C200.391 18.226 200.526 18.8467 200.526 19.556C200.526 20.2653 200.391 20.8907 200.12 21.432C199.859 21.964 199.481 22.3747 198.986 22.664C198.492 22.9533 197.922 23.098 197.278 23.098ZM197.278 22.16C197.95 22.16 198.464 21.9407 198.818 21.502C199.182 21.054 199.364 20.4053 199.364 19.556C199.364 18.7253 199.182 18.086 198.818 17.638C198.454 17.1807 197.941 16.952 197.278 16.952C196.616 16.952 196.102 17.1807 195.738 17.638C195.374 18.086 195.192 18.7253 195.192 19.556C195.192 20.396 195.37 21.04 195.724 21.488C196.088 21.936 196.606 22.16 197.278 22.16ZM205.044 23.098C204.4 23.098 203.831 22.9533 203.336 22.664C202.851 22.3747 202.473 21.964 202.202 21.432C201.941 20.8907 201.81 20.2653 201.81 19.556C201.81 18.8467 201.941 18.226 202.202 17.694C202.473 17.1527 202.851 16.7373 203.336 16.448C203.831 16.1587 204.4 16.014 205.044 16.014C205.688 16.014 206.257 16.1587 206.752 16.448C207.247 16.7373 207.625 17.1527 207.886 17.694C208.157 18.226 208.292 18.8467 208.292 19.556C208.292 20.2653 208.157 20.8907 207.886 21.432C207.625 21.964 207.247 22.3747 206.752 22.664C206.257 22.9533 205.688 23.098 205.044 23.098ZM205.044 22.16C205.716 22.16 206.229 21.9407 206.584 21.502C206.948 21.054 207.13 20.4053 207.13 19.556C207.13 18.7253 206.948 18.086 206.584 17.638C206.22 17.1807 205.707 16.952 205.044 16.952C204.381 16.952 203.868 17.1807 203.504 17.638C203.14 18.086 202.958 18.7253 202.958 19.556C202.958 20.396 203.135 21.04 203.49 21.488C203.854 21.936 204.372 22.16 205.044 22.16ZM216.058 23H214.588L211.116 19.738V23H209.982V13.13H211.116V19.276L214.294 16.196H215.736L212.348 19.458L216.058 23Z" fill="#FAFAFA"/>
<path opacity="0.3" d="M36 5V30.5" stroke="white"/>
<path d="M15.9961 28V19.0547H13V15.5H15.9961V12.6992C15.9961 9.65625 17.8555 8 20.5703 8C21.8711 8 22.9883 8.09766 23.3125 8.14062V11.3203H21.4297C19.9531 11.3203 19.668 12.0234 19.668 13.0508V15.5H23L22.543 19.0547H19.668V28" fill="#FAFAFA"/>
</svg>
