<svg width="67" height="72" viewBox="0 0 67 72" fill="none" xmlns="http://www.w3.org/2000/svg">
<path d="M43.9358 1.31727C43.9358 0.354448 30.419 0.916092 23.6606 1.31727V22.3789H12.3303V46.4494H1.59633L1 70.5198C22.6667 70.7204 66 71.0012 66 70.5198V45.8476H55.2661C55.2661 38.4259 55.1468 23.3417 54.6697 22.3789C54.1927 21.4161 47.7125 21.9777 44.5321 22.3789C44.3333 15.7595 43.9358 2.28008 43.9358 1.31727Z" fill="#D82438"/>
<path d="M7.17846 65.8036H4.7856C4.46829 65.8036 4.16397 65.9296 3.9396 66.154C3.71522 66.3784 3.58917 66.6827 3.58917 67C3.58917 67.3173 3.71522 67.6216 3.9396 67.846C4.16397 68.0704 4.46829 68.1964 4.7856 68.1964H7.17846C7.49577 68.1964 7.80009 68.0704 8.02446 67.846C8.24883 67.6216 8.37489 67.3173 8.37489 67C8.37489 66.6827 8.24883 66.3784 8.02446 66.154C7.80009 65.9296 7.49577 65.8036 7.17846 65.8036Z" fill="white"/>
<path d="M7.17846 62.2142H4.7856C4.46829 62.2142 4.16397 62.3403 3.9396 62.5647C3.71522 62.789 3.58917 63.0933 3.58917 63.4107C3.58917 63.728 3.71522 64.0323 3.9396 64.2567C4.16397 64.481 4.46829 64.6071 4.7856 64.6071H7.17846C7.49577 64.6071 7.80009 64.481 8.02446 64.2567C8.24883 64.0323 8.37489 63.728 8.37489 63.4107C8.37489 63.0933 8.24883 62.789 8.02446 62.5647C7.80009 62.3403 7.49577 62.2142 7.17846 62.2142Z" fill="white"/>
<path d="M28.7142 65.8036H26.3213C26.004 65.8036 25.6997 65.9296 25.4753 66.154C25.2509 66.3784 25.1249 66.6827 25.1249 67C25.1249 67.3173 25.2509 67.6216 25.4753 67.846C25.6997 68.0704 26.004 68.1964 26.3213 68.1964H28.7142C29.0315 68.1964 29.3358 68.0704 29.5602 67.846C29.7845 67.6216 29.9106 67.3173 29.9106 67C29.9106 66.6827 29.7845 66.3784 29.5602 66.154C29.3358 65.9296 29.0315 65.8036 28.7142 65.8036Z" fill="white"/>
<path d="M28.7142 62.2142H26.3213C26.004 62.2142 25.6997 62.3403 25.4753 62.5647C25.2509 62.789 25.1249 63.0933 25.1249 63.4107C25.1249 63.728 25.2509 64.0323 25.4753 64.2567C25.6997 64.481 26.004 64.6071 26.3213 64.6071H28.7142C29.0315 64.6071 29.3358 64.481 29.5602 64.2567C29.7845 64.0323 29.9106 63.728 29.9106 63.4107C29.9106 63.0933 29.7845 62.789 29.5602 62.5647C29.3358 62.3403 29.0315 62.2142 28.7142 62.2142Z" fill="white"/>
<path d="M50.25 65.8036H47.8571C47.5398 65.8036 47.2355 65.9296 47.0111 66.154C46.7868 66.3784 46.6607 66.6827 46.6607 67C46.6607 67.3173 46.7868 67.6216 47.0111 67.846C47.2355 68.0704 47.5398 68.1964 47.8571 68.1964H50.25C50.5673 68.1964 50.8716 68.0704 51.096 67.846C51.3204 67.6216 51.4464 67.3173 51.4464 67C51.4464 66.6827 51.3204 66.3784 51.096 66.154C50.8716 65.9296 50.5673 65.8036 50.25 65.8036Z" fill="white"/>
<path d="M50.25 62.2142H47.8571C47.5398 62.2142 47.2355 62.3403 47.0111 62.5647C46.7868 62.789 46.6607 63.0933 46.6607 63.4107C46.6607 63.728 46.7868 64.0323 47.0111 64.2567C47.2355 64.481 47.5398 64.6071 47.8571 64.6071H50.25C50.5673 64.6071 50.8716 64.481 51.096 64.2567C51.3204 64.0323 51.4464 63.728 51.4464 63.4107C51.4464 63.0933 51.3204 62.789 51.096 62.5647C50.8716 62.3403 50.5673 62.2142 50.25 62.2142Z" fill="white"/>
<path d="M65.8036 45.4643H56.2321V22.7321C56.2321 22.4148 56.1061 22.1105 55.8817 21.8861C55.6573 21.6618 55.353 21.5357 55.0357 21.5357H45.4643V1.19643C45.4643 0.879116 45.3382 0.5748 45.1139 0.350426C44.8895 0.126052 44.5852 0 44.2679 0H22.7321C22.4148 0 22.1105 0.126052 21.8861 0.350426C21.6618 0.5748 21.5357 0.879116 21.5357 1.19643V21.5357H11.9643C11.647 21.5357 11.3427 21.6618 11.1183 21.8861C10.8939 22.1105 10.7679 22.4148 10.7679 22.7321V45.4643H1.19643C0.879116 45.4643 0.5748 45.5903 0.350426 45.8147C0.126052 46.0391 0 46.3434 0 46.6607V70.5893C0 70.9066 0.126052 71.2109 0.350426 71.4353C0.5748 71.6597 0.879116 71.7857 1.19643 71.7857H65.8036C66.1209 71.7857 66.4252 71.6597 66.6496 71.4353C66.8739 71.2109 67 70.9066 67 70.5893V46.6607C67 46.3434 66.8739 46.0391 66.6496 45.8147C66.4252 45.5903 66.1209 45.4643 65.8036 45.4643ZM53.8393 47.8571H56.2321V52.6429H53.8393V47.8571ZM53.8393 45.4643H34.6964V23.9286H40.6786V29.9107C40.6786 30.228 40.8046 30.5323 41.029 30.7567C41.2534 30.9811 41.5577 31.1071 41.875 31.1071H46.6607C46.978 31.1071 47.2823 30.9811 47.5067 30.7567C47.7311 30.5323 47.8571 30.228 47.8571 29.9107V23.9286H53.8393V45.4643ZM32.3036 47.8571H34.6964V52.6429H32.3036V47.8571ZM45.4643 23.9286V28.7143H43.0714V23.9286H45.4643ZM34.6964 2.39286V4.78571H32.3036V2.39286H34.6964ZM23.9286 2.39286H29.9107V5.98214C29.9107 6.29946 30.0368 6.60377 30.2611 6.82815C30.4855 7.05252 30.7898 7.17857 31.1071 7.17857H35.8929C36.2102 7.17857 36.5145 7.05252 36.7389 6.82815C36.9632 6.60377 37.0893 6.29946 37.0893 5.98214V2.39286H43.0714V21.5357H23.9286V2.39286ZM23.9286 23.9286V28.7143H21.5357V23.9286H23.9286ZM13.1607 23.9286H19.1429V29.9107C19.1429 30.228 19.2689 30.5323 19.4933 30.7567C19.7177 30.9811 20.022 31.1071 20.3393 31.1071H25.125C25.4423 31.1071 25.7466 30.9811 25.971 30.7567C26.1954 30.5323 26.3214 30.228 26.3214 29.9107V23.9286H32.3036V45.4643H13.1607V23.9286ZM13.1607 47.8571V52.6429H10.7679V47.8571H13.1607ZM2.39286 47.8571H8.375V53.8393C8.375 54.1566 8.50105 54.4609 8.72543 54.6853C8.9498 54.9097 9.25412 55.0357 9.57143 55.0357H14.3571C14.6745 55.0357 14.9788 54.9097 15.2031 54.6853C15.4275 54.4609 15.5536 54.1566 15.5536 53.8393V47.8571H21.5357V69.3929H2.39286V47.8571ZM23.9286 47.8571H29.9107V53.8393C29.9107 54.1566 30.0368 54.4609 30.2611 54.6853C30.4855 54.9097 30.7898 55.0357 31.1071 55.0357H35.8929C36.2102 55.0357 36.5145 54.9097 36.7389 54.6853C36.9632 54.4609 37.0893 54.1566 37.0893 53.8393V47.8571H43.0714V69.3929H23.9286V47.8571ZM64.6071 69.3929H45.4643V47.8571H51.4464V53.8393C51.4464 54.1566 51.5725 54.4609 51.7969 54.6853C52.0212 54.9097 52.3255 55.0357 52.6429 55.0357H57.4286C57.7459 55.0357 58.0502 54.9097 58.2746 54.6853C58.4989 54.4609 58.625 54.1566 58.625 53.8393V47.8571H64.6071V69.3929Z" fill="white"/>
<path d="M15.5535 44.2679H17.9464C18.2637 44.2679 18.568 44.1418 18.7924 43.9174C19.0168 43.6931 19.1428 43.3887 19.1428 43.0714C19.1428 42.7541 19.0168 42.4498 18.7924 42.2254C18.568 42.0011 18.2637 41.875 17.9464 41.875H15.5535C15.2362 41.875 14.9319 42.0011 14.7075 42.2254C14.4832 42.4498 14.3571 42.7541 14.3571 43.0714C14.3571 43.3887 14.4832 43.6931 14.7075 43.9174C14.9319 44.1418 15.2362 44.2679 15.5535 44.2679Z" fill="white"/>
<path d="M15.5535 40.6786H17.9464C18.2637 40.6786 18.568 40.5526 18.7924 40.3282C19.0168 40.1038 19.1428 39.7995 19.1428 39.4822C19.1428 39.1649 19.0168 38.8606 18.7924 38.6362C18.568 38.4118 18.2637 38.2858 17.9464 38.2858H15.5535C15.2362 38.2858 14.9319 38.4118 14.7075 38.6362C14.4832 38.8606 14.3571 39.1649 14.3571 39.4822C14.3571 39.7995 14.4832 40.1038 14.7075 40.3282C14.9319 40.5526 15.2362 40.6786 15.5535 40.6786Z" fill="white"/>
<path d="M39.4822 41.875H37.0893C36.772 41.875 36.4677 42.0011 36.2433 42.2254C36.0189 42.4498 35.8929 42.7541 35.8929 43.0714C35.8929 43.3887 36.0189 43.6931 36.2433 43.9174C36.4677 44.1418 36.772 44.2679 37.0893 44.2679H39.4822C39.7995 44.2679 40.1038 44.1418 40.3282 43.9174C40.5525 43.6931 40.6786 43.3887 40.6786 43.0714C40.6786 42.7541 40.5525 42.4498 40.3282 42.2254C40.1038 42.0011 39.7995 41.875 39.4822 41.875Z" fill="white"/>
<path d="M39.4822 38.2858H37.0893C36.772 38.2858 36.4677 38.4118 36.2433 38.6362C36.0189 38.8606 35.8929 39.1649 35.8929 39.4822C35.8929 39.7995 36.0189 40.1038 36.2433 40.3282C36.4677 40.5526 36.772 40.6786 37.0893 40.6786H39.4822C39.7995 40.6786 40.1038 40.5526 40.3282 40.3282C40.5525 40.1038 40.6786 39.7995 40.6786 39.4822C40.6786 39.1649 40.5525 38.8606 40.3282 38.6362C40.1038 38.4118 39.7995 38.2858 39.4822 38.2858Z" fill="white"/>
<path d="M26.3213 16.75H28.7142C29.0315 16.75 29.3358 16.624 29.5602 16.3996C29.7845 16.1752 29.9106 15.8709 29.9106 15.5536C29.9106 15.2363 29.7845 14.932 29.5602 14.7076C29.3358 14.4832 29.0315 14.3572 28.7142 14.3572H26.3213C26.004 14.3572 25.6997 14.4832 25.4753 14.7076C25.2509 14.932 25.1249 15.2363 25.1249 15.5536C25.1249 15.8709 25.2509 16.1752 25.4753 16.3996C25.6997 16.624 26.004 16.75 26.3213 16.75Z" fill="white"/>
<path d="M26.3213 20.3393H28.7142C29.0315 20.3393 29.3358 20.2132 29.5602 19.9888C29.7845 19.7645 29.9106 19.4602 29.9106 19.1428C29.9106 18.8255 29.7845 18.5212 29.5602 18.2968C29.3358 18.0725 29.0315 17.9464 28.7142 17.9464H26.3213C26.004 17.9464 25.6997 18.0725 25.4753 18.2968C25.2509 18.5212 25.1249 18.8255 25.1249 19.1428C25.1249 19.4602 25.2509 19.7645 25.4753 19.9888C25.6997 20.2132 26.004 20.3393 26.3213 20.3393Z" fill="white"/>
</svg>
