<svg width="64" height="65" viewBox="0 0 64 65" fill="none" xmlns="http://www.w3.org/2000/svg">
<g clip-path="url(#clip0)">
<path d="M35.3837 51.4928C35.3837 43.0363 42.2389 36.1815 50.695 36.1815C52.475 36.1815 53.6266 36.394 54.8339 36.7508C55.6468 37.0954 55.9579 36.4165 56.0427 36.0998C56.5958 34.0336 56.906 31.9264 56.906 29.8035C56.906 29.6614 56.8266 11.5891 56.8266 11.3659C56.8266 9.58362 55.8054 9.58782 55.3495 9.59013C52.0781 9.60567 48.7435 9.60714 45.2356 8.59599C37.9478 6.49472 31.4686 0.785645 29.0055 0.785645C26.6197 0.785645 21.809 6.49493 14.5209 8.59599C10.4112 9.78081 6.47015 9.56094 2.78317 9.39C2.34994 9.37005 1.6603 9.25518 1.44148 10.7567C1.38625 11.1351 1.10506 29.6003 1.10506 29.8035C1.10506 47.8422 23.422 64.7856 29.0051 64.7856C30.7916 64.7856 33.6701 63.3509 37.5442 60.4678C38.0603 60.022 37.7838 59.7263 37.6311 59.4773C36.2069 57.1525 35.3837 54.4194 35.3837 51.4928Z" fill="#D82438"/>
<path d="M50.7913 59.3C50.2755 59.8559 49.3549 59.942 48.7453 59.4911L39.0489 52.3211C38.4395 51.8704 38.3137 51.0061 38.7696 50.4004L40.0139 48.7488C40.4698 48.1431 41.343 48.0146 41.9543 48.4632L48.1722 53.0261C48.7833 53.4744 49.7052 53.3866 50.2207 52.8305L58.9967 43.6447C59.5122 43.0886 60.3881 43.0563 60.9432 43.5729L62.4566 44.9815C63.0117 45.4981 63.044 46.3755 62.5284 46.9314L50.7913 59.3Z" fill="#FB3A20"/>
</g>
<defs>
<clipPath id="clip0">
<rect width="64" height="64" fill="white" transform="translate(0 0.785645)"/>
</clipPath>
</defs>
</svg>
