<svg width="64" height="64" viewBox="0 0 64 64" fill="none" xmlns="http://www.w3.org/2000/svg">
<path d="M62.9045 29.4284C64.2084 30.5313 64.372 32.4832 63.2681 33.7881C63.1571 33.9188 63.0352 34.0407 62.9045 34.1517H62.8935C61.6852 35.1612 61.4337 36.9197 62.3113 38.2269C63.256 39.6471 62.8693 41.5639 61.4502 42.5075C61.302 42.6064 61.146 42.692 60.9823 42.7634C59.862 43.2555 59.1381 44.3628 59.1369 45.5864C59.1369 45.895 59.181 46.2027 59.2687 46.4982V46.5092C59.774 48.1304 58.8678 49.8551 57.2464 50.3603C57.0751 50.4142 56.8982 50.4526 56.7203 50.4746H56.7093C55.1496 50.6712 53.9884 52.0113 54.0182 53.5831V53.5941C54.0467 55.2922 52.6924 56.6917 50.9942 56.7202C50.8118 56.7235 50.6284 56.7104 50.4483 56.6807C50.2879 56.6587 50.1264 56.6477 49.965 56.6477C48.5755 56.6433 47.3551 57.5704 46.9883 58.9105C46.6214 60.2506 45.401 61.1776 44.0115 61.1732C43.5512 61.1765 43.0976 61.0744 42.6824 60.8766C42.2682 60.6745 41.8135 60.5691 41.3532 60.5691C40.2877 60.5691 39.2981 61.1216 38.739 62.03V62.041C37.8382 63.4854 35.938 63.927 34.4924 63.0263C34.3387 62.9306 34.1937 62.8209 34.0597 62.7C32.8833 61.6598 31.1169 61.6598 29.9405 62.7C28.6729 63.8391 26.7222 63.7359 25.583 62.4683C25.4633 62.3354 25.3557 62.1925 25.2612 62.041V62.03C24.4363 60.6921 22.7336 60.1934 21.3178 60.8766H21.3068C19.7745 61.6092 17.9379 60.9622 17.2052 59.43C17.1251 59.263 17.0602 59.0895 17.0119 58.9105C16.6472 57.5715 15.4334 56.6422 14.0461 56.6367C13.8802 56.64 13.7155 56.6553 13.5518 56.6807C13.3882 56.706 13.2235 56.7213 13.0576 56.7247C11.355 56.7203 9.97757 55.3373 9.98195 53.6337C9.98195 53.6206 9.98195 53.6073 9.98195 53.5942V53.5832C10.0116 52.0113 8.85057 50.6712 7.29081 50.4747H7.27981C5.5948 50.2604 4.40304 48.7204 4.61717 47.0355C4.6403 46.8575 4.67867 46.6808 4.73142 46.5094V46.4984C5.1928 44.999 4.45567 43.392 3.01791 42.7638C1.45703 42.0773 0.747401 40.256 1.4329 38.6951C1.50428 38.5325 1.59003 38.3755 1.68878 38.2272C2.57416 36.9224 2.32153 35.1571 1.10665 34.1521H1.09553C-0.208354 33.0492 -0.37198 31.0973 0.731901 29.7924C0.842901 29.6617 0.964777 29.5398 1.09553 29.4288L1.10653 29.4178C2.31591 28.4138 2.56741 26.6563 1.68866 25.3535V25.3425C0.746151 23.9289 1.1274 22.0198 2.54104 21.0773C2.69154 20.9763 2.85191 20.8894 3.01779 20.8169C4.14042 20.3248 4.86755 19.2186 4.87417 17.9939C4.8753 17.6809 4.82692 17.3689 4.73142 17.0712C4.6358 16.7736 4.58755 16.4616 4.58867 16.1486C4.58867 14.5943 5.74755 13.2838 7.29081 13.095C8.82532 12.9016 9.97757 11.599 9.98195 10.0523V9.93144C9.9787 8.23318 11.3528 6.85355 13.051 6.84917C13.219 6.84917 13.3871 6.8623 13.5518 6.88867C13.7155 6.91392 13.8802 6.9293 14.0461 6.93255C15.4345 6.93142 16.6494 5.99892 17.0119 4.65878C17.3875 3.31978 18.609 2.3949 19.9996 2.39602C20.4555 2.39277 20.9069 2.4949 21.3178 2.69265V2.70365C22.7369 3.37703 24.4351 2.87615 25.2612 1.53927C25.8224 0.628636 26.8165 0.0761325 27.8864 0.0783825C28.6454 0.0761325 29.3792 0.358509 29.9405 0.869262C31.1104 1.92489 32.8898 1.92489 34.0597 0.869262C34.621 0.358509 35.3547 0.0761325 36.1137 0.0783825C37.1836 0.0761325 38.1777 0.628761 38.739 1.53927C39.3002 2.44977 40.2944 3.0024 41.3642 3.00015C41.8201 2.9979 42.2694 2.8969 42.6824 2.70352L42.6934 2.69252C44.2323 1.96202 46.0721 2.6189 46.8015 4.15778C46.8784 4.31928 46.9399 4.48616 46.9883 4.65866C47.3529 5.99767 48.5668 6.92692 49.954 6.93242C50.1199 6.92917 50.2847 6.9138 50.4483 6.88855C50.6153 6.8633 50.7844 6.84792 50.9535 6.84467C52.6562 6.85455 54.0292 8.24293 54.0182 9.94557C54.0182 9.95869 54.0182 9.97194 54.0182 9.98619V10.0301C54.0149 11.5832 55.1682 12.897 56.7093 13.0947H56.7203C58.4053 13.3078 59.5993 14.8456 59.3873 16.5306C59.3642 16.7141 59.3247 16.8942 59.2687 17.071C59.182 17.3676 59.138 17.674 59.1369 17.9827C59.1337 19.2097 59.8586 20.3224 60.9823 20.8168C62.5432 21.5033 63.2528 23.3245 62.5673 24.8854C62.496 25.048 62.4102 25.205 62.3115 25.3533C61.4261 26.6549 61.6787 28.4168 62.8936 29.4176L62.9045 29.4284ZM56.3138 31.9328C56.3138 18.5869 45.4943 7.76718 32.1482 7.76718C18.8021 7.76718 7.98269 18.5869 7.98269 31.9328C7.98269 45.2788 18.8022 56.0985 32.1483 56.0985C45.4944 56.0985 56.3138 45.2799 56.3138 31.9328Z" fill="#D82438"/>
<circle cx="32" cy="31.7856" r="25" fill="#FB3A20"/>
<path d="M18.3176 36.9116C17.5802 36.9116 16.8522 36.8136 16.1336 36.6176C15.4149 36.4216 14.8316 36.1603 14.3836 35.8336L15.1816 34.0136C15.6576 34.3123 16.1662 34.541 16.7076 34.6996C17.2489 34.8583 17.7949 34.9376 18.3456 34.9376C18.9056 34.9376 19.3302 34.863 19.6196 34.7136C19.9182 34.555 20.0676 34.3356 20.0676 34.0556C20.0676 33.8036 19.9322 33.5983 19.6616 33.4396C19.4002 33.281 18.8962 33.1223 18.1496 32.9636C17.2256 32.7676 16.5022 32.5343 15.9796 32.2636C15.4569 31.993 15.0882 31.6756 14.8736 31.3116C14.6682 30.9476 14.5656 30.4996 14.5656 29.9676C14.5656 29.361 14.7336 28.8196 15.0696 28.3436C15.4149 27.8583 15.8956 27.4803 16.5116 27.2096C17.1369 26.9296 17.8509 26.7896 18.6536 26.7896C19.3629 26.7896 20.0489 26.8923 20.7116 27.0976C21.3836 27.2936 21.9062 27.5503 22.2796 27.8676L21.4956 29.6876C20.5996 29.0716 19.6569 28.7636 18.6676 28.7636C18.1916 28.7636 17.8089 28.857 17.5196 29.0436C17.2302 29.221 17.0856 29.459 17.0856 29.7576C17.0856 29.935 17.1369 30.0796 17.2396 30.1916C17.3422 30.3036 17.5336 30.4156 17.8136 30.5276C18.0936 30.6303 18.5089 30.7376 19.0596 30.8496C19.9556 31.0456 20.6602 31.2836 21.1736 31.5636C21.6869 31.8343 22.0509 32.1516 22.2656 32.5156C22.4802 32.8796 22.5876 33.3136 22.5876 33.8176C22.5876 34.7883 22.2142 35.549 21.4676 36.0996C20.7209 36.641 19.6709 36.9116 18.3176 36.9116ZM31.3984 36.7856L30.5164 34.7416H26.1484L25.2664 36.7856H22.6764L27.2824 26.9156H29.3264L33.9464 36.7856H31.3984ZM26.9744 32.8096H29.6904L28.3324 29.6456L26.9744 32.8096ZM34.5308 36.7856V26.9156H37.1068V34.6996H41.3068V36.7856H34.5308ZM42.5425 36.7856V26.9156H49.5565V28.9036H45.0485V30.7796H49.2765V32.7536H45.0485V34.7976H49.5565V36.7856H42.5425Z" fill="white"/>
</svg>
