<svg width="60" height="61" viewBox="0 0 60 61" fill="none" xmlns="http://www.w3.org/2000/svg">
<g clip-path="url(#clip0)">
<path d="M56.9208 14.0898L48.7578 10.4602L22.988 22.5752V30.3549L18.4925 28.356V20.5763L44.2625 8.46142L35.6069 4.61279C34.4478 4.09749 32.5514 4.09749 31.3925 4.61279L10.0786 14.0898C8.38069 14.8448 6.995 16.983 6.99931 18.8412L7.03255 32.8842C8.36863 32.4543 9.7902 32.2169 11.2674 32.2169C18.9094 32.2169 25.1275 38.4349 25.1275 46.0779C25.1275 48.074 24.6948 49.9683 23.9318 51.6846L31.4577 54.9017C32.5788 55.3809 34.4131 55.381 35.5344 54.9019L56.7996 45.8143C58.5265 45.0763 59.9429 42.9361 59.9474 41.0581L60 18.8411C60.0043 16.9829 58.6187 14.8447 56.9208 14.0898ZM48.6917 30.2131L51.5797 24.12C51.8713 23.505 52.6022 23.1502 52.8947 23.4838L55.8583 26.8623C56.1543 27.1996 55.7787 27.9679 55.1849 28.2434L53.9375 28.8221L53.9123 37.5994C53.9111 37.9829 53.5724 38.4395 53.1566 38.6189L51.289 39.425C50.8796 39.6018 50.5484 39.438 50.5482 39.0595L50.542 30.3973L49.3336 30.9579C48.7654 31.2215 48.4096 30.8082 48.6917 30.2131ZM38.043 35.1918L40.6678 29.3998C40.9326 28.8156 41.6094 28.4869 41.8857 28.8104L44.6829 32.0872C44.9624 32.4143 44.6214 33.144 44.0715 33.3991L42.9164 33.9349L42.9909 42.3396C42.9941 42.7071 42.6835 43.1398 42.2981 43.3062L40.5664 44.0538C40.1867 44.2177 39.876 44.0562 39.8716 43.6935L39.7701 35.3947L38.6496 35.9146C38.1227 36.159 37.7865 35.758 38.043 35.1918ZM57.2462 39.9298C57.2448 40.1227 57.0716 40.3512 56.8593 40.4404L37.0798 48.7499C36.8952 48.8275 36.7433 48.7463 36.7407 48.5685L36.7255 47.6017C36.7227 47.4236 36.8702 47.2152 37.055 47.1365L56.8698 38.6956C57.0826 38.605 57.2541 38.6883 57.2529 38.8815L57.2462 39.9298ZM11.2672 34.8105C5.04451 34.8105 0 39.855 0 46.0777C0 52.3004 5.04451 57.3449 11.2672 57.3449C17.4898 57.3449 22.5343 52.3004 22.5343 46.0777C22.5344 39.855 17.4898 34.8105 11.2672 34.8105ZM18.6295 43.7628L11.6958 51.5631C11.3542 51.9473 10.8786 52.1446 10.3996 52.1446C10.0191 52.1446 9.63657 52.0201 9.31745 51.7645L4.98392 48.2978C4.23647 47.7002 4.1151 46.6093 4.71343 45.8619C5.31098 45.1137 6.40245 44.9926 7.1498 45.591L10.1981 48.0295L16.0387 41.4589C16.6739 40.7437 17.77 40.6786 18.4856 41.3149C19.2013 41.9516 19.2656 43.0467 18.6295 43.7628Z" fill="#D82438"/>
</g>
<defs>
<clipPath id="clip0">
<rect width="60" height="60" fill="white" transform="translate(0 0.785645)"/>
</clipPath>
</defs>
</svg>
